<svg width="60" height="60" viewBox="0 0 60 60" fill="none" xmlns="http://www.w3.org/2000/svg">
<path fill-rule="evenodd" clip-rule="evenodd" d="M23.4676 23.3489L26.9986 25.3799V3.24902C26.9986 1.59302 28.3426 0.249023 29.9986 0.249023C31.6576 0.249023 32.9986 1.59302 32.9986 3.24902V25.3799L36.5327 23.3489C38.2667 22.3529 40.4296 23.6038 40.4296 25.6018C40.4296 26.5318 39.9316 27.3927 39.1246 27.8577L31.4956 32.2471C30.5686 32.7781 29.4286 32.7781 28.5046 32.2471L20.8727 27.8577C20.0687 27.3927 19.5706 26.5318 19.5706 25.6018C19.5706 23.6038 21.7336 22.3529 23.4676 23.3489ZM44.9986 54C43.3456 54 41.9986 52.653 41.9986 51C41.9986 47.034 47.9986 47.034 47.9986 51C47.9986 52.653 46.6546 54 44.9986 54ZM8.99864 54C7.34564 54 5.99864 52.653 5.99864 51C5.99864 47.034 11.9986 47.034 11.9986 51C11.9986 52.653 10.6546 54 8.99864 54ZM56.9986 0H47.9986C44.9986 0 41.9986 1.983 41.9986 7.125V36H11.9986V21C11.9986 14.985 20.9986 21.012 20.9986 15C20.9986 13.341 19.6576 12 17.9986 12H11.9986C8.68664 12 5.99864 14.685 5.99864 18V42.5493C1.98764 43.9773 -0.733386 48.1234 0.175614 52.7974C0.859614 56.3314 3.76959 59.202 7.30959 59.844C13.0246 60.885 17.9986 56.523 17.9986 51C17.9986 47.085 15.4876 43.7913 11.9986 42.5493V42H41.9986V42.5493C37.9876 43.9773 35.2666 48.1234 36.1756 52.7974C36.8596 56.3314 39.7696 59.202 43.3096 59.844C49.0246 60.885 53.9986 56.523 53.9986 51C53.9986 47.085 51.4876 43.7913 47.9986 42.5493C47.9986 2.08832 45.0226 6 56.9986 6C58.6576 6 59.9986 4.656 59.9986 3C59.9986 1.341 58.6576 0 56.9986 0Z" fill="#fff"/>
</svg>
