<svg width="60" height="60" viewBox="0 0 60 60" fill="none" xmlns="http://www.w3.org/2000/svg">
<g clip-path="url(#clip0_6_521)">
<path d="M55.3125 0H4.6875C2.09766 0 0 2.09766 0 4.6875V55.3125C0 57.9023 2.09766 60 4.6875 60H55.3125C57.9023 60 60 57.9023 60 55.3125V4.6875C60 2.09766 57.9023 0 55.3125 0ZM36.6211 24.9141L36.2813 29.4023H31.6758V44.9883H25.8633V29.4023H22.7578V24.9141H25.8633V21.9023C25.8633 20.5781 25.8984 18.5273 26.8594 17.25C27.8789 15.9023 29.2734 14.9883 31.6758 14.9883C35.5898 14.9883 37.2305 15.5508 37.2305 15.5508L36.457 20.1445C36.457 20.1445 35.168 19.7695 33.9609 19.7695C32.7539 19.7695 31.6758 20.2031 31.6758 21.4102V24.9141H36.6211Z" fill="#fff"/>
</g>
<defs>
<clipPath id="clip0_6_521">
<rect width="60" height="60" fill="white"/>
</clipPath>
</defs>
</svg>
