<svg width="58" height="60" viewBox="0 0 58 60" fill="none" xmlns="http://www.w3.org/2000/svg">
<path d="M50.6008 20.1786C50.6139 19.9592 50.6204 19.7395 50.6204 19.5198C50.6204 13.3896 45.6333 8.40248 39.503 8.40248C39.0247 8.40248 38.5487 8.43295 38.0772 8.49353C37.06 6.2822 35.5085 4.36688 33.5221 2.88751C30.9858 0.998439 27.9694 0 24.799 0C16.7384 0 10.1807 6.55783 10.1807 14.6183C10.1807 14.9772 10.1938 15.3357 10.2199 15.693C7.82498 16.2129 5.63239 17.4277 3.89509 19.2241C1.62703 21.5695 0.37793 24.6584 0.37793 27.922C0.37793 32.8701 3.26754 37.2914 7.69291 39.308C8.03673 41.4638 9.0592 43.4478 10.6462 44.9983C12.5681 46.8763 15.1067 47.9104 17.7941 47.9104C20.1809 47.9104 22.4693 47.084 24.2988 45.5748V53.1206L17.4194 60H40.5812L33.7018 53.1206V45.5749C35.5312 47.0842 37.8196 47.9106 40.2064 47.9106C42.7961 47.9106 45.2669 46.9407 47.164 45.1796C48.6729 43.7789 49.7113 41.9793 50.1702 40.0055C54.5089 38.7083 57.6224 34.6548 57.6224 30.0224C57.6224 25.535 54.7162 21.6059 50.6008 20.1786ZM12.2091 28.433C11.0963 28.433 10.1942 27.5309 10.1942 26.4181C10.1942 25.3053 11.0963 24.4032 12.2091 24.4032C13.3219 24.4032 14.224 25.3053 14.224 26.4181C14.224 27.5309 13.3219 28.433 12.2091 28.433ZM20.2688 40.5226C19.156 40.5226 18.2539 39.6205 18.2539 38.5077C18.2539 37.3948 19.156 36.4927 20.2688 36.4927C21.3816 36.4927 22.2837 37.3948 22.2837 38.5077C22.2837 39.6204 21.3816 40.5226 20.2688 40.5226ZM20.2688 17.6867C19.156 17.6867 18.2539 16.7846 18.2539 15.6717C18.2539 14.5589 19.156 13.6568 20.2688 13.6568C21.3816 13.6568 22.2837 14.5589 22.2837 15.6717C22.2837 16.7846 21.3816 17.6867 20.2688 17.6867ZM29.0001 29.7762C27.8873 29.7762 26.9852 28.8741 26.9852 27.7613C26.9852 26.6485 27.8873 25.7464 29.0001 25.7464C30.1129 25.7464 31.015 26.6485 31.015 27.7613C31.015 28.8741 30.1129 29.7762 29.0001 29.7762ZM37.7315 40.5226C36.6187 40.5226 35.7166 39.6205 35.7166 38.5077C35.7166 37.3948 36.6187 36.4927 37.7315 36.4927C38.8443 36.4927 39.7464 37.3948 39.7464 38.5077C39.7464 39.6204 38.8442 40.5226 37.7315 40.5226ZM37.7315 20.3733C36.6187 20.3733 35.7166 19.4712 35.7166 18.3584C35.7166 17.2456 36.6187 16.3435 37.7315 16.3435C38.8443 16.3435 39.7464 17.2456 39.7464 18.3584C39.7464 19.4712 38.8442 20.3733 37.7315 20.3733ZM45.7912 29.7762C44.6784 29.7762 43.7763 28.8741 43.7763 27.7613C43.7763 26.6485 44.6784 25.7464 45.7912 25.7464C46.904 25.7464 47.8061 26.6485 47.8061 27.7613C47.8061 28.8741 46.9039 29.7762 45.7912 29.7762Z" fill="#2c8659"/>
</svg>
