<?xml version="1.0" ?><svg data-name="Layer 1" id="Layer_1"  xmlns="http://www.w3.org/2000/svg"><defs><style>.cls-1{fill:#2c8659;}</style></defs><title/><path class="cls-1" d="M87.9,189.7A33.77,33.77,0,0,1,76,164.24c0-11.55,6.34-22.44,16.75-29.11a25.87,25.87,0,0,1-.75-6.19,26.54,26.54,0,0,1,6-16.71l.14-.16A38,38,0,0,0,74.44,104c-19.76,0-35.77,14.42-35.77,32.2a29.13,29.13,0,0,0,.37,4.6h-.37C21.73,140.8,8,153.16,8,168.4a26.23,26.23,0,0,0,9,19.52A32.39,32.39,0,0,0,38.67,196H89.78a34,34,0,0,0,6.53-.63A39.93,39.93,0,0,1,87.9,189.7ZM48.49,170.83l-5.66,5.66L40,173.66l-2.83,2.83-5.66-5.66L34.34,168l-2.83-2.83,5.66-5.66L40,162.34l2.83-2.83,5.66,5.66L45.66,168ZM72,141.66l-2.83,2.83-5.66-5.66L66.34,136l-2.83-2.83,5.66-5.66L72,130.34l2.83-2.83,5.66,5.66L77.66,136l2.83,2.83-5.66,5.66Z"/><path class="cls-1" d="M257,145.41A36.29,36.29,0,0,0,239.19,134a47.19,47.19,0,0,0,.81-8.63C240,98.12,216.72,76,188,76c-22.36,0-41.41,13.41-48.76,32.22a30.58,30.58,0,0,0-15.24-4,29.21,29.21,0,0,0-22.9,10.49A22.65,22.65,0,0,0,96,128.94a22.08,22.08,0,0,0,1.52,8C87,142.52,80,152.65,80,164.24A29.94,29.94,0,0,0,90.54,186.7a36.65,36.65,0,0,0,11.73,6.9A39.89,39.89,0,0,0,116,196H228c19.88,0,36-14.22,36-31.76A29.24,29.24,0,0,0,257,145.41ZM148.49,134.83l-5.66,5.66L140,137.66l-2.83,2.83-5.66-5.66,2.83-2.83-2.83-2.83,5.66-5.66,2.83,2.83,2.83-2.83,5.66,5.66L145.66,132Zm28,28-5.66,5.66L168,165.66l-2.83,2.83-5.66-5.66,2.83-2.83-2.83-2.83,5.66-5.66,2.83,2.83,2.83-2.83,5.66,5.66L173.66,160Zm40-40-5.66,5.66L208,125.66l-2.83,2.83-5.66-5.66,2.83-2.83-2.83-2.83,5.66-5.66,2.83,2.83,2.83-2.83,5.66,5.66L213.66,120Z"/></svg>