<svg width="42" height="58" viewBox="0 0 42 58" fill="none" xmlns="http://www.w3.org/2000/svg">
<path d="M0.916978 16.385C1.29385 15.3463 3.2851 14.9788 5.82198 14.9788C6.6076 14.9788 7.44385 15.0144 8.3026 15.0763C7.14948 11.0244 6.5026 6.95563 7.92385 6.13438C8.10573 6.02938 8.31385 5.98063 8.5501 5.98063C10.3107 5.98063 13.4607 8.75562 16.2076 11.6956C17.1957 6.75125 18.9695 0.875 21.0001 0.875C23.0307 0.875 24.8045 6.75125 25.7945 11.6937C28.5432 8.75375 31.6914 5.97875 33.452 5.97875C33.6864 5.97875 33.8964 6.0275 34.0782 6.1325C35.4995 6.95375 34.8507 11.0225 33.6995 15.0744C34.5582 15.0125 35.3945 14.9769 36.1801 14.9769C38.717 14.9769 40.7082 15.3462 41.0851 16.3831C41.6776 18.0125 38.1864 20.9262 34.4739 23.3731H7.52635C3.81573 20.9281 0.322603 18.0125 0.916978 16.385ZM6.0001 25.25C4.9651 25.25 4.1251 26.09 4.1251 27.125V32.75C4.1251 33.785 4.9651 34.625 6.0001 34.625L7.64073 47.75H34.3595L36.0001 34.625C37.0351 34.625 37.8751 33.785 37.8751 32.75V27.125C37.8751 26.09 37.0351 25.25 36.0001 25.25H6.0001ZM34.1251 49.625H7.8751C6.8401 49.625 6.0001 50.465 6.0001 51.5C6.0001 54.6069 8.51823 57.125 11.6251 57.125H30.3751C33.482 57.125 36.0001 54.6069 36.0001 51.5C36.0001 50.465 35.1601 49.625 34.1251 49.625Z" fill="#2c8659"/>
</svg>
