<svg width="60" height="60" viewBox="0 0 60 60" fill="none" xmlns="http://www.w3.org/2000/svg">
<g clip-path="url(#clip0_6_528)">
<path d="M48.3984 0H11.6016C5.20313 0 0 5.20313 0 11.6016V23.8594V48.4219C0 54.8203 5.20313 60.0234 11.6016 60.0234H48.3984C54.7969 60.0234 60 54.8203 60 48.4219V23.8359V11.5781C59.9766 5.20312 54.7734 0 48.3984 0ZM51.7266 6.91406H53.0625V8.22656V17.0859L42.9141 17.1094L42.8906 6.9375L51.7266 6.91406ZM21.4219 23.8359C23.3437 21.1875 26.4609 19.4297 29.9766 19.4297C33.4922 19.4297 36.6094 21.1641 38.5312 23.8359C39.7969 25.5703 40.5234 27.7031 40.5234 30C40.5234 35.8125 35.7891 40.5703 29.9531 40.5703C24.1172 40.5703 19.4297 35.8125 19.4297 30C19.4297 27.7031 20.1797 25.5703 21.4219 23.8359ZM54.1406 48.3984C54.1406 51.5625 51.5625 54.1406 48.3984 54.1406H11.6016C8.4375 54.1406 5.85938 51.5625 5.85938 48.3984V23.8359H14.8125C14.0391 25.7344 13.5938 27.8203 13.5938 30C13.5938 39.0469 20.9531 46.4062 30 46.4062C39.0469 46.4062 46.4062 39.0469 46.4062 30C46.4062 27.8203 45.9609 25.7344 45.1875 23.8359H54.1406V48.3984Z" fill="#fff"/>
</g>
<defs>
<clipPath id="clip0_6_528">
<rect width="60" height="60" fill="white"/>
</clipPath>
</defs>
</svg>
