<svg width="50" height="60" viewBox="0 0 50 60" fill="none" xmlns="http://www.w3.org/2000/svg">
<path d="M39.2791 19.5872C39.7441 18.1406 40 16.6003 40 15C40 6.71625 33.2847 0 25 0C16.7153 0 10 6.71625 10 15C10 16.6003 10.2559 18.1406 10.7209 19.5872C4.84844 21.6206 0.625 27.1856 0.625 33.75C0.625 42.0338 7.34031 48.75 15.625 48.75C18.8734 48.75 21.8697 47.7028 24.325 45.9469L16.8156 38.4375H12.8125C12.2941 38.4375 11.875 38.0184 11.875 37.5C11.875 36.9816 12.2941 36.5625 12.8125 36.5625H16.5625V32.8125C16.5625 32.2941 16.9816 31.875 17.5 31.875C18.0184 31.875 18.4375 32.2941 18.4375 32.8125V37.4072L24.0625 43.0294V31.3275L20.5937 27.8587C20.2272 27.4922 20.2675 26.94 20.635 26.5725C21.0016 26.2059 21.5106 26.1225 21.8762 26.4881L25 29.6119L28.0844 26.5275C28.4509 26.1609 29.0575 26.1478 29.4241 26.5134C29.7906 26.8791 29.7897 27.4734 29.4231 27.84L25.9375 31.3256V43.0303L31.5625 37.4044V32.8125C31.5625 32.2941 31.9816 31.875 32.5 31.875C33.0184 31.875 33.4375 32.2941 33.4375 32.8125V36.5625H37.1875C37.7059 36.5625 38.125 36.9816 38.125 37.5C38.125 38.0184 37.7059 38.4375 37.1875 38.4375H33.1844L25.675 45.9469C28.1313 47.7028 31.1266 48.75 34.375 48.75C42.6597 48.75 49.375 42.0338 49.375 33.75C49.375 27.1856 45.1516 21.6206 39.2791 19.5872Z" fill="#2c8659"/>
<path d="M21.25 49.6509V59.0625C21.25 59.5809 21.6691 60 22.1875 60H27.8125C28.3309 60 28.75 59.5809 28.75 59.0625V49.6509C27.4169 49.1784 26.155 48.554 25 47.7797C23.845 48.554 22.5831 49.1784 21.25 49.6509Z" fill="#2c8659"/>
</svg>
