<svg xmlns="http://www.w3.org/2000/svg" xmlns:xlink="http://www.w3.org/1999/xlink" version="1.1" x="0px" y="0px"  ><g><path d="M57.5999756,34.9699707c-0.1699829,0-0.3299561,0.0100098-0.4899902,0.0300293   c-0.1900024,0.0199585-0.3699951-0.0599976-0.4699707-0.2200317c-0.1099854-0.1599731-0.1199951-0.3599854-0.0300293-0.5199585   c0.3200073-0.5700073,0.4899902-1.2200317,0.4899902-1.8800049c0-2.1600342-1.75-3.9100342-3.9099731-3.9100342   c-0.4500122,0-0.8900146,0.0800171-1.3099976,0.2300415c-0.2000122,0.0699463-0.4199829,0.0099487-0.5499878-0.1500244   c-0.1400146-0.1699829-0.1600342-0.3900146-0.0499878-0.5800171c0.3599854-0.5899658,0.539978-1.2799683,0.539978-1.9799805   c0-2.1500244-1.75-3.9000244-3.9000244-3.9000244c-0.7799683,0-1.5299683,0.2300415-2.1699829,0.6600342   c-0.1599731,0.1099854-0.3800049,0.1099854-0.5499878,0s-0.25-0.3099976-0.2200317-0.5   c0.0400391-0.2200317,0.0500488-0.4400024,0.0500488-0.6600342c0-2.1499634-1.75-3.8999634-3.9000244-3.8999634   c-1.3300171,0-2.5599976,0.6599731-3.2800293,1.7799683c-0.1099854,0.1799927-0.3299561,0.2700195-0.5299683,0.2200317   s-0.3599854-0.210022-0.3900146-0.4200439c-0.25-1.9400024-1.9099731-3.3999634-3.8699951-3.3999634   c-2.0299683,0-3.7000122,1.5200195-3.8800049,3.539978c-0.0200195,0.1799927-0.1300049,0.3400269-0.2999878,0.4100342   c-0.1600342,0.0799561-0.3499756,0.0599976-0.5-0.0500488c-0.6699829-0.5-1.4700317-0.7599487-2.3200073-0.7599487   c-2.1500244,0-3.9000244,1.75-3.9000244,3.8999634l0.0100098,0.1799927c0,0.210022-0.1199951,0.4000244-0.3200073,0.4800415   c-0.1999512,0.0799561-0.4199829,0.0299683-0.5599976-0.1300049c-0.7399902-0.8600464-1.8200073-1.3500366-2.9499512-1.3500366   c-2.1500244,0-3.9000244,1.75-3.9000244,3.9000244V26.25c0.0100098,0.1699829-0.0599976,0.3299561-0.2000122,0.4299927   c-0.1400146,0.0999756-0.3099976,0.1300049-0.4699707,0.0700073c-0.4400024-0.1700439-0.9100342-0.2600098-1.3900146-0.2600098   c-2.1500244,0-3.9100342,1.75-3.9100342,3.9099731c0,0.6100464,0.1500244,1.2300415,0.4300537,1.7700195   c0.0899658,0.1699829,0.0699463,0.3599854-0.0300293,0.5200195c-0.0999756,0.1499634-0.2799683,0.2299805-0.4699707,0.2099609   c-0.1400146-0.0199585-0.2800293-0.0199585-0.4300537-0.0199585c-2.1499634,0-3.8999634,1.75-3.8999634,3.8999634   c0,0.8200073,0.2600098,1.6100464,0.7399902,2.2800293c0.0800171,0.1199951,0.1099854,0.2699585,0.0800171,0.4099731   c-0.0400391,0.1400146-0.1300049,0.2600098-0.2600098,0.3300171C3.3200073,40.4699707,2.5,41.7999878,2.5,43.2699585   c0,2.1600342,1.75,3.9100342,3.9000244,3.9100342c1.2199707,0,2.3499756-0.5599976,3.0899658-1.5200195   c0.1099854-0.1400146,0.2900391-0.2099609,0.460022-0.1900024c0.1799927,0.0200195,0.3300171,0.1300049,0.3999634,0.2999878   c0.6100464,1.4300537,2.0200195,2.3600464,3.5900269,2.3600464c1.4199829,0,2.7299805-0.7800293,3.4199829-2.0300293   c0.1799927-0.3200073,0.7000122-0.3200073,0.8800049,0c0.6799927,1.25,2,2.0300293,3.4199829,2.0300293   c1.5,0,2.8900146-0.8800049,3.5300293-2.2300415c0.1599731-0.3499756,0.7399902-0.3499756,0.9000244,0   c0.6499634,1.3500366,2.0299683,2.2300415,3.5299683,2.2300415c1.4700317,0,2.8099976-0.8200073,3.4799805-2.1300049   c0.0800171-0.1700439,0.2600098-0.2700195,0.4400024-0.2700195c0.1900024,0,0.3600464,0.0999756,0.4500122,0.2700195   c0.6699829,1.3099976,2,2.1300049,3.4799805,2.1300049c1.5500488,0,2.9500122-0.9200439,3.5700073-2.3400269   c0.1600342-0.3599854,0.7600098-0.3599854,0.9200439,0c0.6199951,1.4199829,2.0299683,2.3400269,3.5700073,2.3400269   c1.4099731,0,2.7099609-0.7600098,3.3999634-1.9800415c0.0900269-0.1499634,0.25-0.25,0.4299927-0.25   s0.3500366,0.1000366,0.4400024,0.25c0.6900024,1.2200317,1.9899902,1.9800415,3.3900146,1.9800415   c2.1599731,0,3.9099731-1.75,3.9099731-3.9000244c0-0.289978-0.0299683-0.5700073-0.0999756-0.8499756   c-0.0300293-0.1500244,0.0100098-0.3099976,0.1099854-0.4299927c0.1000366-0.1200562,0.2300415-0.1900024,0.4000244-0.1800537   h0.0100098c2.2299805,0,3.9799805-1.75,3.9799805-3.8999634C61.5,36.7199707,59.75,34.9699707,57.5999756,34.9699707z    M24.3800049,40.1199951c-0.0499878,0.0100098-0.1099854,0.0200195-0.1600342,0.0200195   c-0.2099609,0-0.3999634-0.1300049-0.4699707-0.3400269c-0.4799805-1.3900146-1.5200195-2.289978-2.6500244-2.289978   c-1.0799561,0-2.0599976,0.7999878-2.5699463,2.0799561c-0.1500244,0.3800049-0.7800293,0.3800049-0.9300537,0   c-0.5099487-1.2799683-1.5-2.0799561-2.5699463-2.0799561c-1.1000366,0-2.1200562,0.8599854-2.6100464,2.1900024   c-0.0999756,0.2599487-0.3800049,0.3899536-0.6399536,0.289978c-0.2600098-0.0900269-0.4000244-0.3800049-0.3000488-0.6400146   c0.6300049-1.7299805,2.0300293-2.8399658,3.5500488-2.8399658c1.1999512,0,2.2999878,0.6699829,3.0299683,1.7999878   c0.7299805-1.1300049,1.8400269-1.7999878,3.039978-1.7999878c1.5700073,0,2.9800415,1.1599731,3.5900269,2.9699707   C24.7800293,39.7399902,24.6400146,40.0299683,24.3800049,40.1199951z M39.0499878,29.8599854   c-0.0599976,0.0100098-0.1099854,0.0200195-0.1599731,0.0200195c-0.210022,0-0.4100342-0.1300049-0.4800415-0.3400269   C37.9400024,28.1499634,36.9000244,27.25,35.7600098,27.25c-1.0700073,0-2.0599976,0.7999878-2.5700073,2.0799561   c-0.0700073,0.1900024-0.2600098,0.3200073-0.460022,0.3200073c-0.2099609,0-0.3899536-0.1300049-0.4699707-0.3200073   c-0.5-1.2799683-1.4899902-2.0799561-2.5700073-2.0799561c-1.0900269,0-2.1199951,0.8599854-2.6099854,2.1900024   c-0.0900269,0.2600098-0.3800049,0.3899536-0.6400146,0.289978c-0.2600098-0.0899658-0.3900146-0.3800049-0.289978-0.6400146   C26.7800293,27.3599854,28.1699829,26.25,29.6900024,26.25c1.210022,0,2.3099976,0.6699829,3.039978,1.7999878   C33.460022,26.9199829,34.5599976,26.25,35.7600098,26.25c1.5700073,0,2.9899902,1.1599731,3.5999756,2.9699707   C39.4500122,29.4799805,39.3099976,29.7699585,39.0499878,29.8599854z M52.5999756,38.7999878   c-0.0499878,0.0200195-0.1099854,0.0200195-0.1599731,0.0200195c-0.210022,0-0.4000244-0.1300049-0.4799805-0.3300171   c-0.4700317-1.4000244-1.5100098-2.2999878-2.6400146-2.2999878c-1.0800171,0-2.0599976,0.7999878-2.5700073,2.0899658   c-0.0800171,0.1900024-0.2600098,0.3099976-0.4699707,0.3099976c-0.2000122,0-0.3900146-0.1199951-0.460022-0.3099976   c-0.5100098-1.289978-1.5-2.0899658-2.5700073-2.0899658c-1.0999756,0-2.1199951,0.8599854-2.6099854,2.1900024   C40.539978,38.6400146,40.2600098,38.7699585,40,38.6799927c-0.2600098-0.1000366-0.4000244-0.3900146-0.2999878-0.6500244   c0.6300049-1.7199707,2.0299683-2.8399658,3.5499878-2.8399658c1.2000122,0,2.2999878,0.6699829,3.0300293,1.8099976   c0.7299805-1.1400146,1.8399658-1.8099976,3.039978-1.8099976c1.5700073,0,2.9799805,1.1699829,3.5899658,2.9699707   C53,38.4299927,52.8599854,38.7099609,52.5999756,38.7999878z" fill="#2c8659"/></g></svg>