<svg width="60" height="42" viewBox="0 0 60 42" fill="none" xmlns="http://www.w3.org/2000/svg">
<g clip-path="url(#clip0_6_564)">
<path d="M55.8619 0.827637H4.13778C2.13813 0.827637 0.51709 2.44867 0.51709 4.44833V37.5518C0.51709 39.5514 2.13813 41.1725 4.13778 41.1725H55.8619C57.8616 41.1725 59.4826 39.5514 59.4826 37.5518V4.44833C59.4826 2.44867 57.8616 0.827637 55.8619 0.827637Z" fill="white" stroke="#F3F3F3" stroke-width="1.03448"/>
<path fill-rule="evenodd" clip-rule="evenodd" d="M21.9814 32.2662V33.7939V35.3217H21.3118V34.9508C21.0994 35.2259 20.7772 35.3986 20.3392 35.3986C19.4756 35.3986 18.7986 34.7276 18.7986 33.7939C18.7986 32.861 19.4756 32.1893 20.3392 32.1893C20.7772 32.1893 21.0994 32.362 21.3118 32.6371V32.2662H21.9814ZM20.4224 32.8157C19.8428 32.8157 19.4881 33.2569 19.4881 33.7939C19.4881 34.331 19.8428 34.7722 20.4224 34.7722C20.9763 34.7722 21.3502 34.35 21.3502 33.7939C21.3502 33.2379 20.9763 32.8157 20.4224 32.8157ZM44.6096 33.7939C44.6096 33.2569 44.9643 32.8157 45.5439 32.8157C46.0985 32.8157 46.4716 33.2379 46.4716 33.7939C46.4716 34.35 46.0985 34.7722 45.5439 34.7722C44.9643 34.7722 44.6096 34.331 44.6096 33.7939ZM47.1037 31.0391V33.7939V35.3217H46.4334V34.9508C46.2209 35.2259 45.8986 35.3986 45.4606 35.3986C44.5971 35.3986 43.9201 34.7276 43.9201 33.7939C43.9201 32.861 44.5971 32.1893 45.4606 32.1893C45.8986 32.1893 46.2209 32.362 46.4334 32.6371V31.0391H47.1037ZM30.2934 32.7842C30.7247 32.7842 31.002 33.0527 31.0729 33.5254H29.4748C29.5463 33.0842 29.8162 32.7842 30.2934 32.7842ZM28.7727 33.7939C28.7727 32.8412 29.4039 32.1893 30.3066 32.1893C31.1695 32.1893 31.7623 32.8412 31.769 33.7939C31.769 33.8832 31.7623 33.9666 31.7557 34.0493H29.4689C29.5655 34.5995 29.9585 34.7979 30.3899 34.7979C30.6989 34.7979 31.0278 34.6822 31.286 34.4781L31.6141 34.9705C31.2402 35.2836 30.8155 35.3986 30.3516 35.3986C29.4298 35.3986 28.7727 34.7657 28.7727 33.7939ZM38.3921 33.7939C38.3921 33.2569 38.7469 32.8157 39.3265 32.8157C39.8802 32.8157 40.2542 33.2379 40.2542 33.7939C40.2542 34.35 39.8802 34.7722 39.3265 34.7722C38.7469 34.7722 38.3921 34.331 38.3921 33.7939ZM40.8854 32.2662V33.7939V35.3217H40.2158V34.9508C40.0027 35.2259 39.6812 35.3986 39.2431 35.3986C38.3795 35.3986 37.7025 34.7276 37.7025 33.7939C37.7025 32.861 38.3795 32.1893 39.2431 32.1893C39.6812 32.1893 40.0027 32.362 40.2158 32.6371V32.2662H40.8854ZM34.6104 33.7939C34.6104 34.721 35.2609 35.3986 36.2534 35.3986C36.7173 35.3986 37.0263 35.2962 37.3612 35.0341L37.0395 34.4971C36.7882 34.6764 36.5241 34.7722 36.2336 34.7722C35.6989 34.7657 35.3059 34.3822 35.3059 33.7939C35.3059 33.2057 35.6989 32.8222 36.2336 32.8157C36.5241 32.8157 36.7882 32.9115 37.0395 33.0908L37.3612 32.5537C37.0263 32.2917 36.7173 32.1893 36.2534 32.1893C35.2609 32.1893 34.6104 32.8669 34.6104 33.7939ZM42.4319 32.6371C42.6059 32.3686 42.8574 32.1893 43.2439 32.1893C43.3795 32.1893 43.5727 32.215 43.721 32.2727L43.5145 32.8991C43.3729 32.8412 43.2312 32.8222 43.0956 32.8222C42.6575 32.8222 42.4385 33.1032 42.4385 33.6088V35.3217H41.7682V32.2662H42.4319V32.6371ZM25.2934 32.5091C24.9711 32.2983 24.5272 32.1893 24.0374 32.1893C23.2572 32.1893 22.755 32.5603 22.755 33.1676C22.755 33.6659 23.129 33.9732 23.8177 34.0691L24.1341 34.1136C24.5013 34.165 24.6747 34.2608 24.6747 34.4334C24.6747 34.6698 24.4298 34.8044 23.9726 34.8044C23.5087 34.8044 23.174 34.6574 22.9482 34.4846L22.6326 35.002C22.9999 35.2705 23.4637 35.3986 23.966 35.3986C24.8553 35.3986 25.3708 34.9829 25.3708 34.4012C25.3708 33.8641 24.9652 33.5832 24.2948 33.4874L23.9792 33.442C23.6894 33.4039 23.4571 33.3469 23.4571 33.142C23.4571 32.9181 23.6761 32.7842 24.0433 32.7842C24.4364 32.7842 24.8169 32.9312 25.0035 33.0462L25.2934 32.5091ZM33.1223 32.6371C33.2955 32.3686 33.547 32.1893 33.9334 32.1893C34.0691 32.1893 34.2624 32.215 34.4105 32.2727L34.204 32.8991C34.0625 32.8412 33.9209 32.8222 33.7852 32.8222C33.3472 32.8222 33.1282 33.1032 33.1282 33.6088V35.3217H32.4585V32.2662H33.1223V32.6371ZM28.2188 32.2662H27.1237V31.3391H26.4467V32.2662H25.8221V32.8734H26.4467V34.2674C26.4467 34.9764 26.724 35.3986 27.5161 35.3986C27.8066 35.3986 28.1414 35.3093 28.3538 35.1622L28.1606 34.5929C27.9607 34.7079 27.7417 34.7657 27.5677 34.7657C27.2329 34.7657 27.1237 34.5608 27.1237 34.2541V32.8734H28.2188V32.2662ZM18.2064 33.4039V35.3217H17.5294V33.6212C17.5294 33.1032 17.3104 32.8157 16.8532 32.8157C16.4084 32.8157 16.0994 33.0974 16.0994 33.6279V35.3217H15.4225V33.6212C15.4225 33.1032 15.1976 32.8157 14.7529 32.8157C14.2949 32.8157 13.9985 33.0974 13.9985 33.6279V35.3217H13.3223V32.2662H13.9926V32.6429C14.2441 32.2852 14.5656 32.1893 14.8945 32.1893C15.365 32.1893 15.6998 32.3942 15.9122 32.7329C16.1961 32.3042 16.6017 32.1827 16.9948 32.1893C17.7425 32.1959 18.2064 32.6817 18.2064 33.4039Z" fill="#231F20"/>
<path d="M35.2207 27.074H25.0718V8.97754H35.2207V27.074Z" fill="#FF5F00"/>
<path d="M25.7156 18.0263C25.7156 14.3553 27.4478 11.0853 30.1454 8.97805C28.1728 7.43708 25.6831 6.51733 22.9774 6.51733C16.5719 6.51733 11.3794 11.67 11.3794 18.0263C11.3794 24.3826 16.5719 29.5352 22.9774 29.5352C25.6831 29.5352 28.1728 28.6155 30.1454 27.0745C27.4478 24.9673 25.7156 21.6973 25.7156 18.0263Z" fill="#EB001B"/>
<path d="M48.9124 18.0263C48.9124 24.3826 43.7199 29.5352 37.3144 29.5352C34.6086 29.5352 32.119 28.6155 30.1455 27.0745C32.8439 24.9673 34.5762 21.6973 34.5762 18.0263C34.5762 14.3553 32.8439 11.0853 30.1455 8.97805C32.119 7.43708 34.6086 6.51733 37.3144 6.51733C43.7199 6.51733 48.9124 11.67 48.9124 18.0263Z" fill="#F79E1B"/>
</g>
<defs>
<clipPath id="clip0_6_564">
<rect width="60" height="42" fill="white"/>
</clipPath>
</defs>
</svg>
