<svg width="60" height="40" viewBox="0 0 60 40" fill="none" xmlns="http://www.w3.org/2000/svg">
<g clip-path="url(#clip0_6_534)">
<path d="M3.07692 0.769287H56.9231C58.6231 0.769287 60 2.14621 60 3.84621V36.1539C60 37.8539 58.6231 39.2308 56.9231 39.2308H3.07692C1.37692 39.2308 0 37.8539 0 36.1539V3.84621C0 2.14621 1.37692 0.769287 3.07692 0.769287Z" fill="white"/>
<path d="M41.854 19.269V27.5767H46.4694V22.6537H51.7002C53.9002 22.6383 55.7694 21.2306 56.4771 19.269H41.854Z" fill="#37A72E"/>
<path d="M41.2383 12.4231C41.5075 15.8154 44.7229 18.5 48.646 18.5C48.6614 18.5 56.6691 18.5 56.6691 18.5C56.7306 18.1923 56.7614 17.8692 56.7614 17.5385C56.7614 14.7231 54.4921 12.4462 51.6844 12.4231H41.2383Z" fill="url(#paint0_linear_6_534)"/>
<path d="M34.4076 18.4154C34.4614 18.3231 34.546 18.2692 34.6537 18.2692C34.8076 18.2692 34.9229 18.3923 34.9306 18.5385V27.5H39.546V12.4231H34.9306C34.346 12.4462 33.6845 12.8692 33.4383 13.4L29.7691 21.2769C29.7614 21.3077 29.746 21.3385 29.7306 21.3692C29.6768 21.4462 29.5845 21.5 29.4768 21.5C29.3076 21.5 29.1691 21.3616 29.1691 21.1923V12.4231H24.5537V27.5H29.1691C29.746 27.4693 30.3922 27.0462 30.6383 26.5231L34.4076 18.4385C34.3999 18.4308 34.4076 18.4231 34.4076 18.4154Z" fill="#37A72E"/>
<path d="M17.1769 18.6768L14.4769 27.4999H11.1538L8.46148 18.6691C8.4384 18.5307 8.31532 18.423 8.16148 18.423C7.99225 18.423 7.86148 18.5614 7.86148 18.723V27.4922H3.24609V12.4153H7.20763H8.38456C9.23071 12.4153 10.123 13.0768 10.3692 13.8845L12.6153 21.2307C12.7307 21.5999 12.9076 21.5922 13.023 21.2307L15.2692 13.8845C15.5153 13.0691 16.4076 12.4153 17.2538 12.4153H18.4307H22.3922V27.4922H17.7769V18.723C17.7769 18.723 17.7769 18.723 17.7769 18.7153C17.7769 18.5461 17.6384 18.4153 17.4769 18.4153C17.323 18.423 17.1999 18.5307 17.1769 18.6768Z" fill="#37A72E"/>
</g>
<defs>
<linearGradient id="paint0_linear_6_534" x1="41.2402" y1="15.4616" x2="56.7604" y2="15.4616" gradientUnits="userSpaceOnUse">
<stop stop-color="#00A0E5"/>
<stop offset="1" stop-color="#0077C3"/>
</linearGradient>
<clipPath id="clip0_6_534">
<rect width="60" height="40" fill="white"/>
</clipPath>
</defs>
</svg>
