<svg width="60" height="60" viewBox="0 0 60 60" fill="none" xmlns="http://www.w3.org/2000/svg">
<path d="M57.8503 14.5652C56.0487 8.19796 50.7723 5.4894 44.7239 6.51889C39.1541 7.46694 36.2445 14.4103 34.8892 18.6208C35.2923 13.0439 34.2618 5.28831 27.6081 1.66686C17.4415 -3.86685 11.007 6.04241 10.3635 7.32925C9.72 8.6162 9.71895 8.86253 11.5216 8.74487C12.0586 8.70972 16.7377 7.39276 21.3293 8.22315L23.4899 6.2305L24.4912 9.03854C28.2956 10.3717 31.348 13.788 31.898 18.9105C28.8115 15.1161 24.0509 12.6731 18.6901 12.6731C9.36914 12.6731 1.81348 20.0235 1.81348 29.0903C1.81348 29.8201 1.82859 29.2964 1.82859 29.2964C1.85473 29.6401 2.07984 29.9367 2.40363 30.0544C2.7273 30.1711 3.09035 30.0875 3.33059 29.8403C3.33059 29.8403 3.51855 29.5476 4.36312 28.7755C5.85105 27.4141 7.48781 26.2147 9.24129 25.1923L10.8449 22.1992L13.0085 23.3483C16.255 22.0544 19.7959 21.3405 23.5049 21.3405C25.9509 21.3405 28.3257 21.6512 30.5909 22.2333C25.3678 21.8874 17.4956 24.6101 14.3798 31.2567C10.5191 39.4929 14.3184 46.0301 14.8675 46.5417C15.3179 46.961 15.8629 46.6343 16.0106 45.9033C16.3332 44.3058 17.2201 41.3197 18.8488 37.9706L18.1912 35.3144L20.002 35.7779C22.2712 31.7763 25.5941 27.5748 30.2943 24.7447C26.6618 32.7476 23.6718 44.4433 28.2282 59.9999H39.4182C39.4182 59.9999 28.0582 48.9968 33.962 26.4337C35.245 28.0916 36.8776 30.4976 38.24 33.4282L39.9622 33.6455L39.193 35.7064C40.1361 38.23 40.8148 41.0491 40.9092 44.0662C40.9334 44.8364 41.3979 45.4065 41.6351 44.9018C45.2707 37.1542 44.1274 29.2246 39.0312 24.5978C42.2445 25.6574 44.8705 28.2412 46.9165 31.1971L49.3566 31.7209L48.9021 34.4716C50.6143 37.7271 51.6649 40.9505 52.04 42.7984C52.1877 43.5262 52.5738 44.0008 53.0394 43.1725C55.8132 38.236 56.1712 28.7631 51.1583 23.5773C47.2714 19.5578 40.4136 19.2932 36.1901 20.4073C38.9628 15.7452 46.3818 15.3983 46.3818 15.3983C46.3818 15.3983 47.555 12.6961 47.8125 12.3099C48.0698 11.9239 49.4855 14.9422 49.4855 14.9422L56.9556 17.9935C56.9556 17.9935 57.9146 18.6492 58.1017 17.5351C58.2143 16.8624 58.2826 15.8259 57.8503 14.5652Z" fill="#2c8659"/>
</svg>
