<svg width="30" height="50" viewBox="0 0 30 50" fill="none" xmlns="http://www.w3.org/2000/svg">
<path fill-rule="evenodd" clip-rule="evenodd" d="M21.9875 0H8.0125C5.225 0 4.215 0.29 3.1975 0.835C2.19096 1.36784 1.36784 2.19096 0.835 3.1975C0.29 4.215 0 5.225 0 8.0125V41.9875C0 44.7725 0.29 45.785 0.835 46.8025C1.38 47.82 2.18 48.62 3.1975 49.165C4.215 49.71 5.225 50 8.0125 50H21.9875C24.7725 50 25.785 49.71 26.8025 49.165C27.82 48.62 28.62 47.82 29.165 46.8025C29.71 45.785 30 44.775 30 41.9875V8.0125C30 5.225 29.71 4.215 29.165 3.1975C28.6322 2.19096 27.809 1.36784 26.8025 0.835C25.785 0.29 24.775 0 21.9875 0ZM5 39.9875V10.0125H25V39.9875H5Z" fill="#fff"/>
</svg>
