<svg width="46" height="53" viewBox="0 0 46 53" fill="none" xmlns="http://www.w3.org/2000/svg">
<path d="M0.5 49C0.5 50.04 0.86 50.94 1.58 51.7C2.3 52.46 3.2 52.82 4.28 52.78H41.78C42.78 52.78 43.66 52.42 44.42 51.7C45.18 50.98 45.54 50.08 45.5 49C45.5 47.2 45.08 45.38 44.24 43.54C43.4 41.7 42.3 40.06 40.94 38.62C39.58 37.18 38.02 35.84 36.26 34.6C34.5 33.36 32.7 32.42 30.86 31.78C33.06 30.42 34.8 28.6 36.08 26.32C37.36 24.04 38 21.6 38 19V15.28C38 11.12 36.54 7.58003 33.62 4.66003C30.7 1.74003 27.16 0.280029 23 0.280029C18.84 0.280029 15.3 1.74003 12.38 4.66003C9.46 7.58003 8 11.12 8 15.28V19C8 21.64 8.64 24.08 9.92 26.32C11.2 28.56 12.94 30.38 15.14 31.78C13.26 32.46 11.46 33.4 9.74 34.6C8.02 35.8 6.46 37.14 5.06 38.62C3.66 40.1 2.56 41.74 1.76 43.54C0.96 45.34 0.54 47.16 0.5 49Z" fill="#fff"/>
</svg>
