<svg width="60" height="42" viewBox="0 0 60 42" fill="none" xmlns="http://www.w3.org/2000/svg">
<g clip-path="url(#clip0_6_550)">
<path d="M54.8573 0.857178H5.143C2.53937 0.857178 0.428711 2.96784 0.428711 5.57146V36.4286C0.428711 39.0322 2.53937 41.1429 5.143 41.1429H54.8573C57.4609 41.1429 59.5716 39.0322 59.5716 36.4286V5.57146C59.5716 2.96784 57.4609 0.857178 54.8573 0.857178Z" fill="white" stroke="#D9D9D9" stroke-width="0.857143"/>
<path fill-rule="evenodd" clip-rule="evenodd" d="M18.2148 28.2999H14.58L11.8543 17.9012C11.7249 17.4229 11.4502 17 11.0462 16.8007C10.0377 16.2999 8.92653 15.9012 7.71436 15.7002V15.2998H13.5698C14.378 15.2998 14.984 15.9012 15.085 16.5997L16.4993 24.1005L20.1324 15.2998H23.6661L18.2148 28.2999ZM25.6865 28.2999H22.2537L25.0804 15.2998H28.5132L25.6865 28.2999ZM32.9544 18.9012C33.0554 18.2011 33.6615 17.8007 34.3687 17.8007C35.4799 17.7002 36.6902 17.9013 37.7005 18.4004L38.3066 15.6014C37.2963 15.201 36.1852 15 35.1768 15C31.845 15 29.4206 16.8007 29.4206 19.2999C29.4206 21.2011 31.1378 22.1993 32.3501 22.8007C33.6615 23.4003 34.1666 23.8007 34.0656 24.4004C34.0656 25.2999 33.0554 25.7002 32.047 25.7002C30.8348 25.7002 29.6226 25.4004 28.5132 24.8995L27.9071 27.7002C29.1193 28.1993 30.4308 28.4004 31.643 28.4004C35.3788 28.4991 37.7005 26.7002 37.7005 24C37.7005 20.5996 32.9544 20.4003 32.9544 18.9012ZM49.7144 28.2999L46.9886 15.2998H44.061C43.4548 15.2998 42.8487 15.7002 42.6467 16.2999L37.5994 28.2999H41.1332L41.8386 26.4003H46.1805L46.5846 28.2999H49.7144ZM44.566 18.8007L45.5744 23.7002H42.7478L44.566 18.8007Z" fill="#172B85"/>
</g>
<defs>
<clipPath id="clip0_6_550">
<rect width="60" height="42" fill="white"/>
</clipPath>
</defs>
</svg>
