<svg width="60" height="59" viewBox="0 0 60 59" fill="none" xmlns="http://www.w3.org/2000/svg">
<path d="M30.1707 36.7943H30.2668C31.0209 36.7943 31.7115 36.3543 32.0555 35.6858C32.4033 35.0147 32.3475 34.1995 31.9127 33.5842L26.2129 25.5259C26.4712 25.3429 26.6867 25.0962 26.836 24.8042C27.1826 24.1357 27.1268 23.3283 26.6919 22.713L21.9241 15.9748C21.5464 15.4413 20.9337 15.1233 20.2782 15.1233C19.6253 15.1233 19.01 15.44 18.6323 15.9735L13.8645 22.7117C13.4297 23.327 13.3739 24.1318 13.7204 24.8016C13.8723 25.0937 14.0878 25.339 14.3461 25.5207L8.64764 33.5751C8.2128 34.1917 8.15698 35.016 8.50356 35.6845C8.84884 36.3556 9.53941 36.793 10.2936 36.793H10.3883L3.02966 47.1723C2.59481 47.7876 2.54029 48.6001 2.88558 49.2699C3.23216 49.9384 3.92272 50.3642 4.6756 50.3642H17.3459V55.106C17.3459 56.2184 18.2545 57.1063 19.3683 57.1063H20.7585C21.8722 57.1063 22.7913 56.2184 22.7913 55.106V50.3642H35.886C36.6389 50.3642 37.3295 49.9267 37.676 49.2595C38.0213 48.5884 37.9668 47.794 37.532 47.1788L30.1707 36.7943Z" fill="#fff"/>
<path d="M37.5086 18.9877H38.2771L33.1432 26.2373C32.9446 26.5203 32.9174 26.9006 33.077 27.2082C33.2367 27.5159 33.5534 27.7184 33.9 27.7184H42.7579V31.1284C42.7579 31.6411 43.1629 32.0409 43.6757 32.0409H45.3008C45.8136 32.0409 46.2147 31.6398 46.2147 31.1284V27.7184H55.3543C55.6995 27.7184 56.0189 27.5146 56.1772 27.2056C56.3369 26.898 56.3122 26.5255 56.1097 26.2425L50.9772 18.9877H51.747C52.0948 18.9877 52.4129 18.7903 52.5699 18.4814C52.7296 18.1738 52.7049 17.8012 52.5037 17.517L48.5875 11.982C48.8562 11.9249 49.0898 11.7523 49.2197 11.5031C49.378 11.1941 49.3534 10.8242 49.1509 10.5399L45.3839 5.21269C45.2087 4.96736 44.9257 4.82068 44.6271 4.82068C44.3273 4.82068 44.0443 4.96736 43.8704 5.21269L40.1021 10.5386C39.9022 10.8229 39.8763 11.1928 40.0359 11.5018C40.1644 11.751 40.3981 11.9236 40.6642 11.9808L36.7492 17.5144C36.548 17.7973 36.5234 18.1738 36.6817 18.4814C36.8427 18.7903 37.162 18.9877 37.5086 18.9877Z" fill="#fff"/>
<path d="M59.8287 53.5626L55.7242 47.772H56.0656C56.4122 47.772 56.7289 47.5669 56.8886 47.2579C57.0482 46.9516 57.0236 46.5739 56.8224 46.2922L53.6772 41.8438C53.8537 41.7594 54.0017 41.6179 54.0977 41.4375C54.2574 41.1298 54.2314 40.7586 54.0289 40.4756L51.1888 36.4581C51.0149 36.2128 50.7306 36.0648 50.432 36.0648C50.1322 36.0648 49.8492 36.2102 49.6753 36.4581L46.8325 40.4743C46.6339 40.7573 46.6067 41.1285 46.7663 41.4349C46.8598 41.6166 47.0104 41.7568 47.1843 41.8412L44.0404 46.2844C43.8405 46.5687 43.8146 46.9516 43.9729 47.2579C44.1326 47.5656 44.4493 47.772 44.7972 47.772H45.1386L41.0328 53.5626C40.8329 53.8456 40.807 54.2194 40.9666 54.5284C41.1263 54.8347 41.4443 55.0333 41.7896 55.0333H48.8938V57.7203C48.8938 58.233 49.282 58.664 49.7921 58.664H50.837C51.3511 58.664 51.747 58.233 51.747 57.7203V55.0333H59.0719C59.4198 55.0333 59.7378 54.836 59.8975 54.5284C60.0558 54.2194 60.0299 53.8456 59.8287 53.5626Z" fill="#fff"/>
<path d="M6.10735 17.5196C6.10735 17.9843 6.51754 18.3841 6.98224 18.3841H7.56377C8.02717 18.3841 8.44125 17.9843 8.44125 17.5196V15.531H13.8853C14.1994 15.531 14.4889 15.3518 14.633 15.0715C14.7771 14.7924 14.7537 14.4419 14.572 14.1836L11.4969 9.82602H11.5371C11.8525 9.82602 12.1407 9.66246 12.2848 9.38208C12.4289 9.1017 12.4068 8.7707 12.2238 8.51498L9.84185 5.15042C9.94959 5.07384 10.0405 4.97518 10.1041 4.85317C10.2494 4.57408 10.2261 4.23789 10.0444 3.98087L8.04924 1.16409C7.89218 0.940829 7.63776 0.807129 7.36257 0.807129C7.08998 0.807129 6.83296 0.940829 6.6759 1.1628L4.68338 3.98087C4.50166 4.23789 4.47829 4.57408 4.62238 4.85446C4.68598 4.97648 4.77814 5.07773 4.88588 5.15432L2.50395 8.52017C2.32222 8.77719 2.29886 9.103 2.44294 9.38208C2.58832 9.66116 2.87649 9.82602 3.19062 9.82602H3.22956L0.15447 14.1836C-0.0285557 14.4406 -0.0506226 14.7872 0.0934615 15.0663C0.237546 15.3453 0.527012 15.531 0.841141 15.531H6.10735V17.5196Z" fill="#fff"/>
<path d="M24.2658 11.9859H28.7545V13.6851C28.7545 13.9473 28.9648 14.1472 29.2257 14.1472H30.0461C30.307 14.1472 30.4822 13.9473 30.4822 13.6851V11.9859H35.1461C35.324 11.9859 35.4862 11.8678 35.5667 11.7107C35.6485 11.5537 35.6355 11.3395 35.533 11.1954L32.9278 7.49077H33.3133C33.4911 7.49077 33.6534 7.4064 33.7339 7.24933C33.8156 7.09227 33.8027 6.91054 33.7014 6.76646L31.7167 3.96396C31.8517 3.9341 31.9698 3.84843 32.036 3.72122C32.1165 3.56416 32.1035 3.37594 32.001 3.23185L30.0928 0.534495C30.0032 0.408584 29.8592 0.334595 29.7073 0.334595C29.5528 0.334595 29.4087 0.409882 29.3192 0.534495L27.4123 3.23185C27.3098 3.37594 27.2968 3.56545 27.3773 3.72252C27.4435 3.84843 27.5603 3.9367 27.6953 3.96655L25.7119 6.77295C25.6093 6.91703 25.5963 7.09357 25.6781 7.24933C25.7586 7.4064 25.9209 7.49077 26.0974 7.49077H26.4816L23.879 11.185C23.7765 11.3291 23.7635 11.5459 23.8453 11.703C23.9258 11.8613 24.088 11.9859 24.2658 11.9859Z" fill="#fff"/>
</svg>
