<svg width="684" height="504" viewBox="0 0 684 504" fill="none" xmlns="http://www.w3.org/2000/svg">
<path fill-rule="evenodd" clip-rule="evenodd" d="M137.695 183V354.89H137.501V355L137.413 354.89H0.194275L68.8036 269.121L0 183.11H137.501V183.243L137.695 183Z" fill="#B69649"/>
<path fill-rule="evenodd" clip-rule="evenodd" d="M546 355L546 183.11L546.194 183.11L546.194 183L546.283 183.11L683.501 183.11L614.892 268.879L683.695 354.89L546.194 354.89L546.194 354.757L546 355Z" fill="#B69649"/>
<rect x="123" y="198" width="438" height="191" fill="#F2D965"/>
<path d="M214.448 281H203.316V279.724C204.49 279.196 205.692 278.844 206.924 278.668V252.576C206.338 252.429 205.736 252.268 205.12 252.092C204.504 251.916 203.903 251.711 203.316 251.476V250.2H214.448V251.476C213.979 251.711 213.48 251.916 212.952 252.092C212.424 252.268 211.823 252.429 211.148 252.576V271.672L210.664 274.972L212.776 271.496L225.668 253.632V252.576C224.994 252.429 224.348 252.268 223.732 252.092C223.146 251.887 222.603 251.681 222.104 251.476V250.2H233.28V251.476C232.752 251.711 232.18 251.916 231.564 252.092C230.948 252.268 230.318 252.429 229.672 252.576V278.668C231.051 278.903 232.254 279.255 233.28 279.724V281H222.104V279.724C222.574 279.519 223.087 279.328 223.644 279.152C224.202 278.947 224.803 278.785 225.448 278.668V259.616L225.888 256.316L223.952 259.616L210.884 277.7V278.668C211.559 278.785 212.19 278.932 212.776 279.108C213.392 279.284 213.95 279.489 214.448 279.724V281ZM265.324 278.712C265.324 279.299 265.294 279.988 265.236 280.78C265.177 281.543 265.104 282.335 265.016 283.156C264.928 283.977 264.825 284.784 264.708 285.576C264.62 286.368 264.532 287.057 264.444 287.644H263.3L261.452 281H239.76L237.912 287.644H236.812C236.665 287.087 236.533 286.412 236.416 285.62C236.328 284.828 236.24 284.007 236.152 283.156C236.093 282.335 236.034 281.543 235.976 280.78C235.917 279.988 235.888 279.299 235.888 278.712H239.54C240.302 277.48 241.021 275.911 241.696 274.004C242.37 272.068 242.942 269.956 243.412 267.668C243.91 265.351 244.306 262.916 244.6 260.364C244.893 257.812 245.04 255.289 245.04 252.796C244.277 252.649 243.514 252.473 242.752 252.268C242.018 252.063 241.285 251.799 240.552 251.476V250.2H263.916V251.476C263.417 251.681 262.874 251.887 262.288 252.092C261.701 252.268 261.041 252.429 260.308 252.576V278.712H265.324ZM256.084 278.712V252.488H247.592C247.416 256.096 247.122 259.323 246.712 262.168C246.33 264.984 245.876 267.477 245.348 269.648C244.849 271.789 244.321 273.608 243.764 275.104C243.236 276.6 242.752 277.803 242.312 278.712H256.084ZM289.461 250.2C289.432 251.373 289.373 252.561 289.285 253.764C289.226 254.937 289.124 256.125 288.977 257.328H287.833L286.029 252.488H276.437V264.148H283.609L285.325 260.892H286.425C286.601 263.796 286.601 266.759 286.425 269.78H285.325L283.609 266.436H276.437V278.712H286.557L288.713 273.432H289.813C290.018 274.664 290.165 275.911 290.253 277.172C290.341 278.433 290.356 279.709 290.297 281H268.605V279.724C269.632 279.255 270.834 278.903 272.213 278.668V252.576C271.626 252.459 271.025 252.312 270.409 252.136C269.793 251.931 269.192 251.711 268.605 251.476V250.2H289.461ZM304.026 281H294.258V279.724C295.314 279.255 296.37 278.903 297.426 278.668L308.558 249.672H309.834L320.966 278.668C321.553 278.785 322.125 278.917 322.682 279.064C323.269 279.211 323.812 279.431 324.31 279.724V281H313.046V279.724C313.633 279.489 314.234 279.284 314.85 279.108C315.466 278.932 316.068 278.785 316.654 278.668L313.662 270.616H303.146L300.242 278.668C301.474 278.844 302.736 279.196 304.026 279.724V281ZM304.026 268.328H312.914L309.438 259L308.602 255.216H308.514L307.414 259.088L304.026 268.328ZM334.458 252.796C332.64 252.503 331.144 252.063 329.97 251.476V250.2H353.114V251.476C352.088 252.004 350.885 252.371 349.506 252.576V278.668C350.885 278.903 352.088 279.255 353.114 279.724V281H341.938V279.724C342.466 279.489 343.009 279.299 343.566 279.152C344.124 278.976 344.696 278.815 345.282 278.668V252.488H337.054C336.937 257.093 336.717 260.921 336.394 263.972C336.101 266.993 335.72 269.501 335.25 271.496C334.781 273.461 334.238 275.031 333.622 276.204C333.036 277.377 332.39 278.419 331.686 279.328C331.1 280.091 330.381 280.648 329.53 281C328.68 281.352 327.858 281.528 327.066 281.528C326.861 281.293 326.641 280.971 326.406 280.56C326.201 280.12 325.996 279.665 325.79 279.196C325.614 278.697 325.468 278.213 325.35 277.744C325.233 277.245 325.16 276.805 325.13 276.424L325.79 275.324L330.85 276.248C331.29 275.515 331.716 274.547 332.126 273.344C332.566 272.141 332.948 270.616 333.27 268.768C333.622 266.891 333.901 264.647 334.106 262.036C334.341 259.425 334.458 256.345 334.458 252.796ZM356.999 281V279.724C358.143 279.196 359.345 278.844 360.607 278.668V252.576C360.02 252.459 359.419 252.312 358.803 252.136C358.187 251.931 357.585 251.711 356.999 251.476V250.2H368.703V251.476C368.175 251.711 367.573 251.931 366.899 252.136C366.253 252.312 365.564 252.459 364.831 252.576V262.652C365.359 262.593 366.004 262.535 366.767 262.476C367.529 262.388 368.204 262.344 368.791 262.344C370.257 262.344 371.68 262.476 373.059 262.74C374.437 263.004 375.655 263.473 376.711 264.148C377.767 264.823 378.617 265.747 379.263 266.92C379.908 268.093 380.231 269.589 380.231 271.408C380.231 273.139 379.893 274.62 379.219 275.852C378.544 277.055 377.649 278.052 376.535 278.844C375.42 279.636 374.129 280.223 372.663 280.604C371.225 280.956 369.729 281.132 368.175 281.132C368.028 281.132 367.735 281.117 367.295 281.088C366.884 281.088 366.4 281.073 365.843 281.044C365.315 281.044 364.757 281.029 364.171 281C363.584 281 363.071 281 362.631 281H356.999ZM367.867 264.632C367.133 264.632 366.547 264.647 366.107 264.676C365.667 264.676 365.241 264.735 364.831 264.852V278.668C364.977 278.727 365.183 278.771 365.447 278.8C365.74 278.8 366.048 278.815 366.371 278.844C366.693 278.844 367.001 278.844 367.295 278.844C367.588 278.844 367.808 278.844 367.955 278.844C368.981 278.844 369.949 278.697 370.859 278.404C371.768 278.111 372.56 277.671 373.235 277.084C373.939 276.468 374.496 275.691 374.907 274.752C375.317 273.813 375.523 272.684 375.523 271.364C375.523 268.988 374.833 267.272 373.455 266.216C372.105 265.16 370.243 264.632 367.867 264.632ZM395.661 281H384.529V279.724C385.703 279.255 386.905 278.903 388.137 278.668V252.576C386.759 252.371 385.556 252.004 384.529 251.476V250.2H395.661V251.476C395.163 251.74 394.635 251.96 394.077 252.136C393.52 252.312 392.948 252.459 392.361 252.576V264.06H406.177V252.576C405.561 252.429 404.975 252.268 404.417 252.092C403.889 251.916 403.376 251.711 402.877 251.476V250.2H414.009V251.476C413.481 251.769 412.895 252.004 412.249 252.18C411.633 252.327 411.017 252.459 410.401 252.576V278.668C411.076 278.785 411.721 278.932 412.337 279.108C412.953 279.284 413.511 279.489 414.009 279.724V281H402.877V279.724C403.933 279.255 405.033 278.903 406.177 278.668V266.348H392.361V278.668C392.948 278.785 393.52 278.932 394.077 279.108C394.635 279.284 395.163 279.489 395.661 279.724V281ZM452.445 281H441.269V279.724C441.856 279.431 442.428 279.211 442.985 279.064C443.542 278.917 444.114 278.785 444.701 278.668V252.576C444.144 252.429 443.572 252.283 442.985 252.136C442.428 251.989 441.856 251.769 441.269 251.476V250.2H452.445V251.476C451.477 251.945 450.304 252.312 448.925 252.576V278.668C449.658 278.785 450.304 278.932 450.861 279.108C451.418 279.284 451.946 279.489 452.445 279.724V281ZM417.861 281V279.724C419.005 279.196 420.208 278.844 421.469 278.668V252.576C420.882 252.429 420.281 252.268 419.665 252.092C419.049 251.916 418.448 251.711 417.861 251.476V250.2H429.565V251.476C429.008 251.711 428.406 251.931 427.761 252.136C427.116 252.312 426.426 252.459 425.693 252.576V262.652C426.221 262.593 426.866 262.535 427.629 262.476C428.392 262.388 429.066 262.344 429.653 262.344C431.09 262.344 432.469 262.476 433.789 262.74C435.109 263.004 436.268 263.473 437.265 264.148C438.262 264.823 439.054 265.747 439.641 266.92C440.257 268.093 440.565 269.589 440.565 271.408C440.565 273.139 440.228 274.62 439.553 275.852C438.878 277.055 437.998 278.052 436.913 278.844C435.828 279.636 434.596 280.223 433.217 280.604C431.838 280.956 430.445 281.132 429.037 281.132C428.89 281.132 428.597 281.117 428.157 281.088C427.746 281.088 427.277 281.073 426.749 281.044C426.221 281.044 425.664 281.029 425.077 281C424.49 281 423.977 281 423.537 281H417.861ZM428.685 264.632C427.981 264.632 427.394 264.647 426.925 264.676C426.485 264.676 426.074 264.735 425.693 264.852V278.668C425.84 278.727 426.045 278.771 426.309 278.8C426.602 278.8 426.896 278.815 427.189 278.844C427.512 278.844 427.82 278.844 428.113 278.844C428.406 278.844 428.641 278.844 428.817 278.844C430.87 278.844 432.557 278.228 433.877 276.996C435.197 275.764 435.857 273.887 435.857 271.364C435.857 269.164 435.256 267.492 434.053 266.348C432.85 265.204 431.061 264.632 428.685 264.632ZM477.162 250.2C477.133 251.373 477.074 252.561 476.986 253.764C476.927 254.937 476.825 256.125 476.678 257.328H475.534L473.73 252.488H464.138V264.148H471.31L473.026 260.892H474.126C474.302 263.796 474.302 266.759 474.126 269.78H473.026L471.31 266.436H464.138V278.712H474.258L476.414 273.432H477.514C477.719 274.664 477.866 275.911 477.954 277.172C478.042 278.433 478.057 279.709 477.998 281H456.306V279.724C457.333 279.255 458.535 278.903 459.914 278.668V252.576C459.327 252.459 458.726 252.312 458.11 252.136C457.494 251.931 456.893 251.711 456.306 251.476V250.2H477.162ZM162.858 339H153.09V337.724C154.146 337.255 155.202 336.903 156.258 336.668L167.39 307.672H168.666L179.798 336.668C180.384 336.785 180.956 336.917 181.514 337.064C182.1 337.211 182.643 337.431 183.142 337.724V339H171.878V337.724C172.464 337.489 173.066 337.284 173.682 337.108C174.298 336.932 174.899 336.785 175.486 336.668L172.494 328.616H161.978L159.074 336.668C160.306 336.844 161.567 337.196 162.858 337.724V339ZM162.858 326.328H171.746L168.27 317L167.434 313.216H167.346L166.246 317.088L162.858 326.328ZM196.853 339H185.721V337.724C186.161 337.489 186.674 337.284 187.261 337.108C187.847 336.932 188.537 336.785 189.329 336.668V310.576C188.742 310.459 188.141 310.312 187.525 310.136C186.909 309.931 186.307 309.711 185.721 309.476V308.2H214.761V309.476C214.203 309.769 213.617 310.004 213.001 310.18C212.385 310.327 211.769 310.459 211.153 310.576V336.668C212.326 336.815 213.529 337.167 214.761 337.724V339H203.629V337.724C204.274 337.313 205.374 336.961 206.929 336.668V310.488H193.553V336.668C194.697 336.903 195.797 337.255 196.853 337.724V339ZM229.755 339H218.623V337.724C219.063 337.489 219.576 337.284 220.163 337.108C220.749 336.932 221.439 336.785 222.231 336.668V310.576C221.644 310.459 221.043 310.312 220.427 310.136C219.811 309.931 219.209 309.711 218.623 309.476V308.2H247.663V309.476C247.105 309.769 246.519 310.004 245.903 310.18C245.287 310.327 244.671 310.459 244.055 310.576V336.668C245.228 336.815 246.431 337.167 247.663 337.724V339H236.531V337.724C237.176 337.313 238.276 336.961 239.831 336.668V310.488H226.455V336.668C227.599 336.903 228.699 337.255 229.755 337.724V339ZM260.017 339H250.249V337.724C251.305 337.255 252.361 336.903 253.417 336.668L264.549 307.672H265.825L276.957 336.668C277.544 336.785 278.116 336.917 278.673 337.064C279.26 337.211 279.802 337.431 280.301 337.724V339H269.037V337.724C269.624 337.489 270.225 337.284 270.841 337.108C271.457 336.932 272.058 336.785 272.645 336.668L269.653 328.616H259.137L256.233 336.668C257.465 336.844 258.726 337.196 260.017 337.724V339ZM260.017 326.328H268.905L265.429 317L264.593 313.216H264.505L263.405 317.088L260.017 326.328ZM290.712 336.668C291.504 336.756 292.252 336.903 292.956 337.108C293.66 337.284 294.32 337.489 294.936 337.724V339H282.88V337.724C283.467 337.431 284.068 337.211 284.684 337.064C285.3 336.917 285.901 336.785 286.488 336.668V310.576C285.813 310.459 285.183 310.312 284.596 310.136C284.009 309.931 283.437 309.711 282.88 309.476V308.2H286.84C288.013 308.2 289.289 308.141 290.668 308.024C292.047 307.907 293.367 307.848 294.628 307.848C296.065 307.848 297.473 308.009 298.852 308.332C300.231 308.625 301.448 309.139 302.504 309.872C303.589 310.605 304.455 311.588 305.1 312.82C305.775 314.023 306.112 315.533 306.112 317.352C306.112 319.083 305.775 320.564 305.1 321.796C304.425 323.028 303.516 324.04 302.372 324.832C301.257 325.624 299.981 326.211 298.544 326.592C297.107 326.944 295.625 327.12 294.1 327.12C293.953 327.12 293.719 327.12 293.396 327.12C293.103 327.12 292.78 327.12 292.428 327.12C292.076 327.091 291.739 327.061 291.416 327.032C291.093 327.003 290.859 326.973 290.712 326.944V336.668ZM293.704 310.136C293 310.136 292.428 310.151 291.988 310.18C291.548 310.209 291.123 310.268 290.712 310.356V324.612C290.859 324.671 291.064 324.715 291.328 324.744C291.621 324.744 291.915 324.759 292.208 324.788C292.531 324.817 292.839 324.832 293.132 324.832C293.425 324.832 293.66 324.832 293.836 324.832C294.863 324.832 295.831 324.7 296.74 324.436C297.649 324.143 298.441 323.688 299.116 323.072C299.82 322.456 300.377 321.679 300.788 320.74C301.199 319.801 301.404 318.672 301.404 317.352C301.404 314.947 300.715 313.143 299.336 311.94C297.987 310.737 296.109 310.136 293.704 310.136ZM328.935 339H316.571V337.724C317.216 337.489 317.862 337.284 318.507 337.108C319.182 336.932 319.9 336.785 320.663 336.668V310.488H313.931L311.599 316.78H310.499C310.411 316.193 310.338 315.533 310.279 314.8C310.22 314.037 310.162 313.275 310.103 312.512C310.074 311.72 310.044 310.957 310.015 310.224C309.986 309.461 309.971 308.787 309.971 308.2H335.535C335.535 308.787 335.52 309.447 335.491 310.18C335.462 310.913 335.418 311.676 335.359 312.468C335.33 313.231 335.286 313.993 335.227 314.756C335.198 315.489 335.139 316.164 335.051 316.78H333.907L331.619 310.488H324.887V336.668C325.65 336.815 326.354 336.961 326.999 337.108C327.674 337.255 328.319 337.46 328.935 337.724V339ZM343.899 339H334.131V337.724C335.187 337.255 336.243 336.903 337.299 336.668L348.431 307.672H349.707L360.839 336.668C361.425 336.785 361.997 336.917 362.555 337.064C363.141 337.211 363.684 337.431 364.183 337.724V339H352.919V337.724C353.505 337.489 354.107 337.284 354.723 337.108C355.339 336.932 355.94 336.785 356.527 336.668L353.535 328.616H343.019L340.115 336.668C341.347 336.844 342.608 337.196 343.899 337.724V339ZM343.899 326.328H352.787L349.311 317L348.475 313.216H348.387L347.287 317.088L343.899 326.328ZM402.314 339H391.402V337.724C391.989 337.489 392.575 337.299 393.162 337.152C393.749 336.976 394.35 336.815 394.966 336.668V316.868L395.142 311.72H394.79L393.338 316.428L384.318 339H383.174L374.594 316.428L373.01 311.28H372.614L372.658 316.868V336.668C373.215 336.785 373.773 336.932 374.33 337.108C374.887 337.284 375.445 337.489 376.002 337.724V339H366.806V337.724C367.363 337.489 367.935 337.284 368.522 337.108C369.138 336.903 369.754 336.741 370.37 336.624V310.576C369.754 310.459 369.138 310.312 368.522 310.136C367.935 309.931 367.349 309.711 366.762 309.476V308.2H375.782L383.438 328.308L384.934 332.84H384.978L386.474 328.22L394.394 308.2H402.358V309.476C401.83 309.711 401.287 309.931 400.73 310.136C400.173 310.312 399.601 310.459 399.014 310.576V336.712C399.63 336.829 400.202 336.976 400.73 337.152C401.287 337.299 401.815 337.489 402.314 337.724V339ZM427.094 308.2C427.065 309.373 427.006 310.561 426.918 311.764C426.859 312.937 426.757 314.125 426.61 315.328H425.466L423.662 310.488H414.07V322.148H421.242L422.958 318.892H424.058C424.234 321.796 424.234 324.759 424.058 327.78H422.958L421.242 324.436H414.07V336.712H424.19L426.346 331.432H427.446C427.651 332.664 427.798 333.911 427.886 335.172C427.974 336.433 427.989 337.709 427.93 339H406.238V337.724C407.265 337.255 408.467 336.903 409.846 336.668V310.576C409.259 310.459 408.658 310.312 408.042 310.136C407.426 309.931 406.825 309.711 406.238 309.476V308.2H427.094ZM444.299 339H433.167V337.724C434.341 337.255 435.543 336.903 436.775 336.668V310.576C435.397 310.371 434.194 310.004 433.167 309.476V308.2H444.299V309.476C443.801 309.74 443.273 309.96 442.715 310.136C442.158 310.312 441.586 310.459 440.999 310.576V322.06H454.815V310.576C454.199 310.429 453.613 310.268 453.055 310.092C452.527 309.916 452.014 309.711 451.515 309.476V308.2H462.647V309.476C462.119 309.769 461.533 310.004 460.887 310.18C460.271 310.327 459.655 310.459 459.039 310.576V336.668C459.714 336.785 460.359 336.932 460.975 337.108C461.591 337.284 462.149 337.489 462.647 337.724V339H451.515V337.724C452.571 337.255 453.671 336.903 454.815 336.668V324.348H440.999V336.668C441.586 336.785 442.158 336.932 442.715 337.108C443.273 337.284 443.801 337.489 444.299 337.724V339ZM485.023 339H472.659V337.724C473.305 337.489 473.95 337.284 474.595 337.108C475.27 336.932 475.989 336.785 476.751 336.668V310.488H470.019L467.687 316.78H466.587C466.499 316.193 466.426 315.533 466.367 314.8C466.309 314.037 466.25 313.275 466.191 312.512C466.162 311.72 466.133 310.957 466.103 310.224C466.074 309.461 466.059 308.787 466.059 308.2H491.623C491.623 308.787 491.609 309.447 491.579 310.18C491.55 310.913 491.506 311.676 491.447 312.468C491.418 313.231 491.374 313.993 491.315 314.756C491.286 315.489 491.227 316.164 491.139 316.78H489.995L487.707 310.488H480.975V336.668C481.738 336.815 482.442 336.961 483.087 337.108C483.762 337.255 484.407 337.46 485.023 337.724V339ZM529.645 339H518.469V337.724C519.056 337.431 519.628 337.211 520.185 337.064C520.743 336.917 521.315 336.785 521.901 336.668V310.576C521.344 310.429 520.772 310.283 520.185 310.136C519.628 309.989 519.056 309.769 518.469 309.476V308.2H529.645V309.476C528.677 309.945 527.504 310.312 526.125 310.576V336.668C526.859 336.785 527.504 336.932 528.061 337.108C528.619 337.284 529.147 337.489 529.645 337.724V339ZM495.061 339V337.724C496.205 337.196 497.408 336.844 498.669 336.668V310.576C498.083 310.429 497.481 310.268 496.865 310.092C496.249 309.916 495.648 309.711 495.061 309.476V308.2H506.765V309.476C506.208 309.711 505.607 309.931 504.961 310.136C504.316 310.312 503.627 310.459 502.893 310.576V320.652C503.421 320.593 504.067 320.535 504.829 320.476C505.592 320.388 506.267 320.344 506.853 320.344C508.291 320.344 509.669 320.476 510.989 320.74C512.309 321.004 513.468 321.473 514.465 322.148C515.463 322.823 516.255 323.747 516.841 324.92C517.457 326.093 517.765 327.589 517.765 329.408C517.765 331.139 517.428 332.62 516.753 333.852C516.079 335.055 515.199 336.052 514.113 336.844C513.028 337.636 511.796 338.223 510.417 338.604C509.039 338.956 507.645 339.132 506.237 339.132C506.091 339.132 505.797 339.117 505.357 339.088C504.947 339.088 504.477 339.073 503.949 339.044C503.421 339.044 502.864 339.029 502.277 339C501.691 339 501.177 339 500.737 339H495.061ZM505.885 322.632C505.181 322.632 504.595 322.647 504.125 322.676C503.685 322.676 503.275 322.735 502.893 322.852V336.668C503.04 336.727 503.245 336.771 503.509 336.8C503.803 336.8 504.096 336.815 504.389 336.844C504.712 336.844 505.02 336.844 505.313 336.844C505.607 336.844 505.841 336.844 506.017 336.844C508.071 336.844 509.757 336.228 511.077 334.996C512.397 333.764 513.057 331.887 513.057 329.364C513.057 327.164 512.456 325.492 511.253 324.348C510.051 323.204 508.261 322.632 505.885 322.632Z" fill="#373737"/>
<path d="M339.765 410.354C340.364 408.511 342.971 408.511 343.57 410.354L352.781 438.704C353.45 440.764 355.37 442.159 357.536 442.159H387.345C389.282 442.159 390.088 444.638 388.52 445.777L364.405 463.298C362.652 464.571 361.919 466.828 362.588 468.888L371.8 497.237C372.398 499.08 370.289 500.612 368.722 499.473L344.606 481.952C342.854 480.679 340.481 480.679 338.728 481.952L314.613 499.473C313.045 500.612 310.937 499.08 311.535 497.237L320.747 468.888C321.416 466.828 320.683 464.571 318.93 463.298L294.815 445.777C293.247 444.638 294.053 442.159 295.99 442.159H325.799C327.965 442.159 329.885 440.764 330.554 438.704L339.765 410.354Z" fill="url(#paint0_linear_89_155)"/>
<path d="M438.097 427.887C438.694 426.04 441.306 426.04 441.903 427.887L446.907 443.366C447.574 445.43 449.496 446.828 451.665 446.828H467.87C469.805 446.828 470.612 449.302 469.049 450.443L455.909 460.039C454.165 461.312 453.436 463.56 454.1 465.615L459.117 481.134C459.713 482.978 457.6 484.507 456.034 483.364L442.949 473.809C441.192 472.526 438.808 472.526 437.051 473.809L423.966 483.364C422.4 484.507 420.287 482.978 420.883 481.134L425.9 465.615C426.564 463.56 425.835 461.312 424.091 460.039L410.951 450.443C409.388 449.302 410.195 446.828 412.13 446.828H428.335C430.504 446.828 432.426 445.43 433.093 443.366L438.097 427.887Z" fill="url(#paint1_linear_89_155)"/>
<path d="M172.097 427.903C172.692 426.055 175.308 426.055 175.903 427.903L178.548 436.105C179.214 438.17 181.137 439.57 183.307 439.57H191.882C193.816 439.57 194.624 442.042 193.064 443.184L186.08 448.297C184.341 449.57 183.614 451.814 184.275 453.866L186.939 462.128C187.534 463.973 185.419 465.501 183.854 464.355L176.954 459.303C175.195 458.016 172.805 458.016 171.046 459.303L164.146 464.355C162.581 465.501 160.466 463.973 161.061 462.128L163.725 453.866C164.386 451.814 163.659 449.57 161.92 448.297L154.936 443.184C153.376 442.042 154.184 439.57 156.118 439.57H164.693C166.863 439.57 168.786 438.17 169.452 436.105L172.097 427.903Z" fill="url(#paint2_linear_89_155)"/>
<path d="M508.097 427.903C508.692 426.055 511.308 426.055 511.903 427.903L514.548 436.105C515.214 438.17 517.137 439.57 519.307 439.57H527.882C529.816 439.57 530.624 442.042 529.064 443.184L522.08 448.297C520.341 449.57 519.614 451.814 520.275 453.866L522.939 462.128C523.534 463.973 521.419 465.501 519.854 464.355L512.954 459.303C511.195 458.016 508.805 458.016 507.046 459.303L500.146 464.355C498.581 465.501 496.466 463.973 497.061 462.128L499.725 453.866C500.386 451.814 499.659 449.57 497.92 448.297L490.936 443.184C489.376 442.042 490.184 439.57 492.118 439.57H500.693C502.863 439.57 504.786 438.17 505.452 436.105L508.097 427.903Z" fill="url(#paint3_linear_89_155)"/>
<path d="M242.097 427.887C242.694 426.04 245.306 426.04 245.903 427.887L250.907 443.366C251.574 445.43 253.496 446.828 255.665 446.828H271.87C273.805 446.828 274.612 449.302 273.049 450.443L259.909 460.039C258.165 461.312 257.436 463.56 258.1 465.615L263.117 481.134C263.713 482.978 261.6 484.507 260.034 483.364L246.949 473.809C245.192 472.526 242.808 472.526 241.051 473.809L227.966 483.364C226.4 484.507 224.287 482.978 224.883 481.134L229.9 465.615C230.564 463.56 229.835 461.312 228.091 460.039L214.951 450.443C213.388 449.302 214.195 446.828 216.13 446.828H232.335C234.504 446.828 236.426 445.43 237.093 443.366L242.097 427.887Z" fill="url(#paint4_linear_89_155)"/>
<path fill-rule="evenodd" clip-rule="evenodd" d="M346.284 22.3629C350.776 20.7982 354 16.5255 354 11.5C354 5.14873 348.851 0 342.5 0C336.149 0 331 5.14873 331 11.5C331 16.3624 334.018 20.5199 338.282 22.202L305.5 101.5L239.981 70.2393C240.636 68.7942 241 67.1897 241 65.5C241 59.1487 235.851 54 229.5 54C223.149 54 218 59.1487 218 65.5C218 71.8513 223.149 77 229.5 77C230.543 77 231.554 76.861 232.515 76.6006L249 131L262 174.5H342H342.5H422.5L435.5 131L452.026 76.4658C453.122 76.8128 454.289 77 455.5 77C461.851 77 467 71.8513 467 65.5C467 59.1487 461.851 54 455.5 54C449.149 54 444 59.1487 444 65.5C444 67.1133 444.332 68.6489 444.932 70.0423L379 101.5L346.284 22.3629Z" fill="url(#paint5_linear_89_155)"/>
<path d="M335.84 161H316.612V158.796C318.639 157.884 320.716 157.276 322.844 156.972V111.904C321.831 111.651 320.792 111.372 319.728 111.068C318.664 110.764 317.626 110.409 316.612 110.004V107.8H335.84V110.004C335.03 110.409 334.168 110.764 333.256 111.068C332.344 111.372 331.306 111.651 330.14 111.904V144.888L329.304 150.588L332.952 144.584L355.22 113.728V111.904C354.055 111.651 352.94 111.372 351.876 111.068C350.863 110.713 349.926 110.359 349.064 110.004V107.8H368.368V110.004C367.456 110.409 366.468 110.764 365.404 111.068C364.34 111.372 363.251 111.651 362.136 111.904V156.972C364.518 157.377 366.595 157.985 368.368 158.796V161H349.064V158.796C349.875 158.441 350.762 158.112 351.724 157.808C352.687 157.453 353.726 157.175 354.84 156.972V124.064L355.6 118.364L352.256 124.064L329.684 155.3V156.972C330.85 157.175 331.939 157.428 332.952 157.732C334.016 158.036 334.979 158.391 335.84 158.796V161Z" fill="#373737"/>
<defs>
<linearGradient id="paint0_linear_89_155" x1="374" y1="396" x2="331.5" y2="396" gradientUnits="userSpaceOnUse">
<stop stop-color="#F9CC5E"/>
<stop offset="0.543773" stop-color="white"/>
<stop offset="1" stop-color="#F9CC5E"/>
</linearGradient>
<linearGradient id="paint1_linear_89_155" x1="461.209" y1="416.396" x2="433.331" y2="416.396" gradientUnits="userSpaceOnUse">
<stop stop-color="#F9CC5E"/>
<stop offset="0.543773" stop-color="white"/>
<stop offset="1" stop-color="#F9CC5E"/>
</linearGradient>
<linearGradient id="paint2_linear_89_155" x1="188.971" y1="418.034" x2="169.292" y2="418.034" gradientUnits="userSpaceOnUse">
<stop stop-color="#F9CC5E"/>
<stop offset="0.543773" stop-color="white"/>
<stop offset="1" stop-color="#F9CC5E"/>
</linearGradient>
<linearGradient id="paint3_linear_89_155" x1="524.971" y1="418.034" x2="505.292" y2="418.034" gradientUnits="userSpaceOnUse">
<stop stop-color="#F9CC5E"/>
<stop offset="0.543773" stop-color="white"/>
<stop offset="1" stop-color="#F9CC5E"/>
</linearGradient>
<linearGradient id="paint4_linear_89_155" x1="265.209" y1="416.396" x2="237.331" y2="416.396" gradientUnits="userSpaceOnUse">
<stop stop-color="#F9CC5E"/>
<stop offset="0.543773" stop-color="white"/>
<stop offset="1" stop-color="#F9CC5E"/>
</linearGradient>
<linearGradient id="paint5_linear_89_155" x1="302.5" y1="74" x2="442" y2="174" gradientUnits="userSpaceOnUse">
<stop stop-color="#F9CC5E"/>
<stop offset="0.641279" stop-color="white"/>
<stop offset="1" stop-color="#F9CC5E"/>
</linearGradient>
</defs>
</svg>
