<svg width="60" height="60" viewBox="0 0 60 60" fill="none" xmlns="http://www.w3.org/2000/svg">
<path d="M59.666 36.2549C59.666 33.4647 57.404 31.2026 54.6137 31.2026H54.3726C55.8077 30.3113 56.7637 28.7218 56.7637 26.9083C56.7637 24.1181 54.5017 21.856 51.7114 21.856H32.8911C36.3943 15.372 37.6465 10.5939 38.8356 6.52639C39.5203 4.19168 38.4401 1.63509 36.1775 0.540369C33.657 -0.678984 30.9053 0.187517 29.4061 2.89612C26.0328 8.99023 20.7488 16.5824 12.4982 25.0408C11.0471 26.5282 10.0454 28.337 9.59097 30.3089H0.334473V54.9472H11.2651C13.3218 57.9928 16.8053 59.9993 20.7488 59.9993C21.4429 59.9993 44.3836 59.9995 46.5303 59.9995C49.3205 59.9995 51.5826 57.7376 51.5826 54.9472C51.5826 53.1337 50.6266 51.5442 49.1915 50.6529H50.8246C53.6148 50.6529 55.8769 48.391 55.8769 45.6006C55.8769 43.7871 54.9209 42.1976 53.4858 41.3063H54.6139C57.404 41.3072 59.666 39.045 59.666 36.2549Z" fill="#2c8659"/>
</svg>
