<svg width="60" height="60" viewBox="0 0 60 60" fill="none" xmlns="http://www.w3.org/2000/svg">
<path d="M29.9998 53.9501C43.227 53.9501 53.9498 43.2273 53.9498 30C53.9498 16.7728 43.227 6.05005 29.9998 6.05005C16.7726 6.05005 6.0498 16.7728 6.0498 30C6.0498 43.2273 16.7726 53.9501 29.9998 53.9501Z" stroke="#2c8659" stroke-width="4.8" stroke-miterlimit="10"/>
<path d="M30 44.375C37.9391 44.375 44.375 37.9391 44.375 30C44.375 22.0609 37.9391 15.625 30 15.625C22.0609 15.625 15.625 22.0609 15.625 30C15.625 37.9391 22.0609 44.375 30 44.375Z" stroke="#2c8659" stroke-width="4.8" stroke-miterlimit="10"/>
<path d="M30.0002 34.8C32.6512 34.8 34.8002 32.6509 34.8002 30C34.8002 27.349 32.6512 25.2 30.0002 25.2C27.3492 25.2 25.2002 27.349 25.2002 30C25.2002 32.6509 27.3492 34.8 30.0002 34.8Z" stroke="#2c8659" stroke-width="4.8" stroke-miterlimit="10"/>
<path d="M22.7998 41.975C22.7998 41.0306 22.9862 40.0956 23.3484 39.2234C23.7105 38.3513 24.2412 37.5592 24.9101 36.8926C25.5791 36.226 26.373 35.698 27.2464 35.3389C28.1198 34.9798 29.0555 34.7967 29.9998 34.8C30.9441 34.7967 31.8798 34.9798 32.7532 35.3389C33.6266 35.698 34.4206 36.226 35.0895 36.8926C35.7584 37.5592 36.2891 38.3513 36.6513 39.2234C37.0134 40.0956 37.1998 41.0306 37.1998 41.975" stroke="#2c8659" stroke-width="4.8" stroke-miterlimit="10"/>
<path d="M30 1.25V10.825" stroke="#2c8659" stroke-width="4.8" stroke-miterlimit="10"/>
<path d="M30 49.175V58.75" stroke="#2c8659" stroke-width="4.8" stroke-miterlimit="10"/>
<path d="M58.7498 30H49.1748" stroke="#2c8659" stroke-width="4.8" stroke-miterlimit="10"/>
<path d="M10.825 30H1.25" stroke="#2c8659" stroke-width="4.8" stroke-miterlimit="10"/>
</svg>
