<svg width="48" height="60" viewBox="0 0 48 60" fill="none" xmlns="http://www.w3.org/2000/svg">
<path d="M8.49288 33.8313C8.69714 33.8995 8.90796 33.9341 9.11949 33.9341H9.11972C9.57652 33.9341 10.0214 33.7695 10.3719 33.4719C11.1338 32.825 11.4942 31.7296 10.9375 28.2695C10.4449 25.2015 9.68175 23.5948 8.38636 22.8979C8.10277 22.745 7.80241 22.6431 7.49128 22.594C7.50113 16.8757 9.46062 11.5914 12.8803 8.07668C15.8013 5.07328 19.6462 3.48656 24 3.48656C28.3537 3.48656 32.199 5.07328 35.12 8.07668C38.5396 11.5914 40.4991 16.8748 40.509 22.594C40.1978 22.6431 39.8975 22.745 39.6139 22.8979C38.3185 23.5948 37.5556 25.2015 37.0627 28.2695C36.8521 29.5796 36.7657 30.5932 36.7991 31.3621C35.7912 31.9016 33.9882 32.5703 30.9902 32.8296C30.5178 32.0426 29.6755 31.5586 28.7639 31.5586H27.0343C25.596 31.5586 24.426 32.7286 24.426 34.1671C24.426 35.6055 25.596 36.7755 27.0343 36.7755H28.7639C29.7813 36.7755 30.6957 36.1905 31.1245 35.2752C33.8512 35.0487 36.1018 34.4882 37.8171 33.6066C38.1376 33.8213 38.5031 33.9341 38.8807 33.9341C39.0938 33.9341 39.3049 33.8995 39.5077 33.8313C40.8873 33.3718 43.7967 30.2275 43.9843 23.4382C44.1767 16.4862 41.8569 10.0017 37.6194 5.64551C34.0271 1.95246 29.3176 0 24.0001 0C18.6828 0 13.9733 1.95246 10.3808 5.64551C6.14351 10.0018 3.82355 16.4862 4.01597 23.4382C4.2037 30.2275 7.11312 33.3718 8.49288 33.8313Z" fill="#2c8659"/>
<path d="M47.0541 53.5583C46.6137 51.1391 45.0169 49.082 42.7753 48.0511L33.3947 44.2179C31.8992 43.5309 30.9327 42.0234 30.9327 40.3774V39.6213L30.6855 39.7069C30.0556 39.9253 29.4092 40.0353 28.7638 40.0353H27.0342C23.7985 40.0353 21.1658 37.4032 21.1658 34.1669C21.1658 30.9316 23.7985 28.2994 27.0342 28.2994H28.7638C29.9714 28.2994 31.1315 28.666 32.1187 29.3603L32.181 29.404L32.256 29.3912C34.3213 29.0509 35.273 28.5104 35.6333 28.2476L36.2502 27.3459C36.8541 25.4052 37.1603 23.5828 37.1603 21.9296C37.1603 13.1761 31.6255 6.82275 23.9999 6.82275C16.3744 6.82275 10.8399 13.1762 10.8399 21.9296C10.8399 29.1728 16.7227 37.1066 16.7549 37.1348C16.9621 37.7362 17.0672 38.3631 17.0672 38.9963V40.3775C17.0672 42.0234 16.1006 43.5301 14.6125 44.2144L5.21756 48.0547C2.98209 49.082 1.38506 51.14 0.943613 53.5774L0.445801 60H47.5546L47.0541 53.5583Z" fill="#2c8659"/>
</svg>
