<svg width="60" height="60" viewBox="0 0 60 60" fill="none" xmlns="http://www.w3.org/2000/svg">
<g clip-path="url(#clip0_142_536)">
<path d="M13.2 13.2C5.87813 13.2 0 19.0781 0 26.4C0 29.1609 0.839063 31.8 2.4 33.9609V50.4C2.4 52.3218 4.07813 54 6 54H8.5125C9.08906 57.3937 12.0516 60 15.6 60C19.1484 60 22.1109 57.3937 22.6875 54H33.7172C35.6391 54 37.0828 52.439 37.0828 50.639V21.4828C37.2 19.5609 35.6391 18 33.8391 18H23.4C21 15.1218 17.2781 13.2 13.2 13.2ZM13.2 15.6C19.2 15.6 24 20.4 24 26.4C24 32.4 19.2 37.2 13.2 37.2C7.2 37.2 2.4 32.4 2.4 26.4C2.4 20.4 7.2 15.6 13.2 15.6ZM13.1813 16.7812C12.5203 16.7953 11.9906 17.339 12 18V24.9C11.5453 25.2656 11.2828 25.8187 11.2781 26.4C11.2828 26.4703 11.2875 26.5406 11.2969 26.6062L8.75156 29.1515C8.4375 29.4515 8.31094 29.9015 8.42344 30.3187C8.53125 30.7406 8.85938 31.0687 9.28125 31.1765C9.69844 31.289 10.1484 31.1625 10.4484 30.8484L12.9891 28.3078C13.0594 28.3171 13.1297 28.3171 13.2 28.3171C14.2594 28.3171 15.1172 27.4593 15.1172 26.4C15.1172 25.8187 14.8547 25.2656 14.4 24.9V18C14.4047 17.6765 14.2781 17.3625 14.0484 17.1328C13.8188 16.9031 13.5047 16.7765 13.1813 16.7812ZM40.8 24C39.4781 24 38.4 25.0781 38.4 26.4V51.6C38.4 52.6078 39.0328 53.475 39.9188 53.8265C40.425 57.3046 43.4297 60 47.0391 60C50.5875 60 53.5547 57.3937 54.1313 54H56.4C58.4391 54 60 52.439 60 50.4V38.8828C60 36.4828 58.3219 33.9609 58.0828 33.7171L55.3172 30L53.0391 27C51.8391 25.6781 50.0391 24 48 24H40.8ZM45.6 30H52.3172L56.1609 35.039C56.5219 35.639 57.6 37.439 57.6 38.7609V39.6H45.6C44.4 39.6 43.2 38.4 43.2 37.2V32.4C43.2 31.0781 44.4 30 45.6 30ZM15.6 48C18.2391 48 20.4 50.1609 20.4 52.8C20.4 55.439 18.2391 57.6 15.6 57.6C12.9609 57.6 10.8 55.439 10.8 52.8C10.8 50.1609 12.9609 48 15.6 48ZM47.0391 48C49.6781 48 51.8391 50.1609 51.8391 52.8C51.8391 55.439 49.6781 57.6 47.0391 57.6C44.4 57.6 42.2391 55.439 42.2391 52.8C42.2391 50.1609 44.4 48 47.0391 48Z" fill="#2c8659"/>
</g>
<defs>
<clipPath id="clip0_142_536">
<rect width="60" height="60" fill="white"/>
</clipPath>
</defs>
</svg>
