<svg width="60" height="59" fill="none" xmlns="http://www.w3.org/2000/svg"><path d="M30.17 36.794h.097a2.03 2.03 0 001.789-1.108 2.032 2.032 0 00-.143-2.102l-5.7-8.058a2 2 0 00.623-.722 2.017 2.017 0 00-.144-2.091l-4.768-6.738a2.016 2.016 0 00-3.292-.002l-4.768 6.739a2.015 2.015 0 00.482 2.809l-5.698 8.054a2.05 2.05 0 00-.144 2.11 2.028 2.028 0 001.79 1.108h.094L3.03 47.173a2.022 2.022 0 001.646 3.192h12.67v4.741c0 1.112.909 2 2.022 2h1.39c1.114 0 2.033-.888 2.033-2v-4.742h13.095c.753 0 1.444-.437 1.79-1.104a2 2 0 00-.144-2.081l-7.361-10.385zm7.339-17.806h.768l-5.134 7.25a.947.947 0 00-.066.97c.16.308.476.51.823.51h8.858v3.41c0 .513.405.913.918.913H45.3a.903.903 0 00.914-.913v-3.41h9.14a.936.936 0 00.822-.512.924.924 0 00-.067-.963l-5.133-7.255h.77a.925.925 0 00.823-.507.93.93 0 00-.066-.964l-3.916-5.535a.93.93 0 00.632-.479.927.927 0 00-.07-.963l-3.766-5.327a.933.933 0 00-.757-.392.93.93 0 00-.757.392l-3.768 5.326a.93.93 0 00.562 1.442l-3.915 5.533a.937.937 0 00-.067.967c.16.31.48.507.827.507zm22.32 34.575l-4.105-5.791h.342a.937.937 0 00.823-.514.931.931 0 00-.067-.966l-3.145-4.448a.922.922 0 00.352-1.368l-2.84-4.018a.924.924 0 00-1.514 0l-2.843 4.016a.928.928 0 00.352 1.367l-3.144 4.443a.952.952 0 00-.067.974.94.94 0 00.824.514h.342l-4.106 5.79a.934.934 0 00.757 1.471h7.104v2.687c0 .513.388.944.898.944h1.045c.514 0 .91-.431.91-.944v-2.687h7.325a.933.933 0 00.757-1.47zM6.107 17.52c0 .464.41.864.875.864h.582c.463 0 .877-.4.877-.864v-1.99h5.444c.314 0 .604-.18.748-.46a.87.87 0 00-.061-.887l-3.075-4.358h.04a.829.829 0 00.687-1.311L9.842 5.15a.839.839 0 00.203-1.17L8.048 1.165a.838.838 0 00-1.373-.001L4.683 3.98a.844.844 0 00.203 1.173L2.504 8.52a.823.823 0 00.687 1.306h.039L.154 14.184a.857.857 0 00.687 1.347h5.266v1.989zm18.159-5.534h4.489v1.7c0 .261.21.461.47.461h.821c.261 0 .436-.2.436-.462v-1.7h4.664a.49.49 0 00.42-.274.516.516 0 00-.033-.516l-2.605-3.704h.385a.46.46 0 00.388-.725l-1.984-2.802A.472.472 0 0032 3.232L30.093.534a.474.474 0 00-.774 0l-1.907 2.698a.474.474 0 00.283.735l-1.983 2.806a.446.446 0 00-.034.476.46.46 0 00.42.242h.384l-2.603 3.694a.52.52 0 00-.034.518c.08.158.243.283.42.283z" fill="#fff"/></svg>