<?xml version="1.0" encoding="utf-8"?><svg viewBox="0 0 2000 2000" xmlns="http://www.w3.org/2000/svg" xmlns:xlink="http://www.w3.org/1999/xlink"><style>:root>svg{display:none}:root>svg:target{display:block}</style><svg fill="none" viewBox="0 0 60 60" id="icons--cart" xmlns="http://www.w3.org/2000/svg"><path fill-rule="evenodd" clip-rule="evenodd" d="m23.468 23.349 3.53 2.03V3.25a3.001 3.001 0 0 1 6 0v22.13l3.535-2.03c1.734-.996 3.897.255 3.897 2.253 0 .93-.498 1.79-1.305 2.256l-7.63 4.39a3.007 3.007 0 0 1-2.99 0l-7.632-4.39a2.61 2.61 0 0 1-1.302-2.256c0-1.998 2.163-3.25 3.897-2.253ZM44.998 54c-1.652 0-3-1.347-3-3 0-3.966 6-3.966 6 0 0 1.653-1.343 3-3 3Zm-36 0c-1.652 0-3-1.347-3-3 0-3.966 6-3.966 6 0 0 1.653-1.343 3-3 3Zm48-54h-9c-3 0-6 1.983-6 7.125V36h-30V21c0-6.015 9 .012 9-6 0-1.659-1.34-3-3-3h-6a6 6 0 0 0-6 6v24.55C1.989 43.976-.732 48.122.177 52.796c.684 3.534 3.594 6.405 7.134 7.047 5.715 1.041 10.689-3.321 10.689-8.844 0-3.915-2.511-7.209-6-8.45V42h30v.55c-4.011 1.427-6.732 5.573-5.823 10.247.684 3.534 3.594 6.405 7.134 7.047 5.715 1.041 10.689-3.321 10.689-8.844 0-3.915-2.511-7.209-6-8.45 0-40.462-2.976-36.55 9-36.55a3 3 0 0 0 3-3c0-1.659-1.341-3-3-3Z" fill="#fff"/></svg><svg fill="none" viewBox="-8 0 60 60" id="icons--conifer-tree" xmlns="http://www.w3.org/2000/svg"><path d="M30.208 26.905c2.42 1.211 6.859-1.075 6.859-1.075C27.381 15.067 22 0 22 0S16.62 15.067 6.933 25.83c0 0 4.438 2.286 6.86 1.076 0 0-2.422 9.283-13.317 21.526 9.684 2.69 16.949-1.75 16.949-1.75V60h9.15V46.681s7.265 4.44 16.95 1.75C32.629 36.19 30.208 26.907 30.208 26.907Z" fill="#2c8659"/></svg><svg fill="none" viewBox="0 0 20 20" id="icons--cross" xmlns="http://www.w3.org/2000/svg"><path d="M.553.553a1.89 1.89 0 0 0 0 2.673L7.328 10 .553 16.774a1.89 1.89 0 0 0 2.673 2.673L10 12.672l6.774 6.774a1.89 1.89 0 1 0 2.673-2.672L12.672 10l6.775-6.774A1.89 1.89 0 0 0 16.774.553L10 7.328 3.226.553a1.89 1.89 0 0 0-2.673 0Z" fill="#2c8659"/></svg><svg fill="none" viewBox="0 -5 56 56" id="icons--envelope" xmlns="http://www.w3.org/2000/svg"><path d="M2.004 3.503A7.497 7.497 0 0 1 8 .5h40a7.497 7.497 0 0 1 5.995 3.003L28 22.409 2.004 3.503Z" fill="#fff"/><path d="M55 9.573V38c0 3.855-3.145 7-7 7H8c-3.855 0-7-3.145-7-7V9.573l23.765 17.284a5.5 5.5 0 0 0 6.47 0L55 9.573Z" fill="#fff" stroke="#fff"/></svg><svg fill="none" viewBox="0 0 60 60" id="icons--facebook" xmlns="http://www.w3.org/2000/svg"><g clip-path="url(#fa)"><path d="M55.313 0H4.687A4.686 4.686 0 0 0 0 4.688v50.624A4.686 4.686 0 0 0 4.688 60h50.624A4.686 4.686 0 0 0 60 55.312V4.688A4.686 4.686 0 0 0 55.312 0ZM36.62 24.914l-.34 4.488h-4.605v15.586h-5.813V29.402h-3.105v-4.488h3.105v-3.012c0-1.324.035-3.375.996-4.652 1.02-1.348 2.414-2.262 4.817-2.262 3.914 0 5.555.563 5.555.563l-.774 4.594s-1.289-.375-2.496-.375-2.285.433-2.285 1.64v3.504h4.945Z" fill="#fff"/></g><defs><clipPath id="fa"><path fill="#fff" d="M0 0h60v60H0z"/></clipPath></defs></svg><svg fill="none" viewBox="-1 0 60 60" id="icons--fruit-tree" xmlns="http://www.w3.org/2000/svg"><path d="M50.6 20.179c.014-.22.02-.44.02-.66 0-6.13-4.987-11.117-11.117-11.117-.478 0-.954.031-1.426.092a14.556 14.556 0 0 0-4.555-5.606A14.497 14.497 0 0 0 24.8 0c-8.06 0-14.618 6.558-14.618 14.618 0 .36.013.718.039 1.075a12.456 12.456 0 0 0-6.325 3.531 12.45 12.45 0 0 0-3.517 8.698c0 4.948 2.89 9.37 7.315 11.386a10.17 10.17 0 0 0 2.953 5.69 10.172 10.172 0 0 0 7.148 2.912c2.387 0 4.675-.826 6.505-2.335v7.546L17.419 60h23.162l-6.88-6.88v-7.545a10.198 10.198 0 0 0 6.505 2.336c2.59 0 5.06-.97 6.958-2.731 1.509-1.401 2.547-3.2 3.006-5.175 4.339-1.297 7.452-5.35 7.452-9.983 0-4.487-2.906-8.416-7.021-9.843Zm-38.39 8.254a2.015 2.015 0 1 1 0-4.03 2.015 2.015 0 0 1 0 4.03Zm8.059 12.09a2.015 2.015 0 1 1 0-4.03 2.015 2.015 0 0 1 0 4.03Zm0-22.836a2.015 2.015 0 1 1 0-4.03 2.015 2.015 0 0 1 0 4.03ZM29 29.777a2.015 2.015 0 1 1 0-4.03 2.015 2.015 0 0 1 0 4.03Zm8.731 10.746a2.015 2.015 0 1 1 0-4.03 2.015 2.015 0 0 1 0 4.03Zm0-20.15a2.015 2.015 0 1 1 0-4.03 2.015 2.015 0 0 1 0 4.03Zm8.06 9.403a2.015 2.015 0 1 1 0-4.03 2.015 2.015 0 0 1 0 4.03Z" fill="#2c8659"/></svg><svg fill="none" viewBox="-8 0 58 58" id="icons--home-plant" xmlns="http://www.w3.org/2000/svg"><path d="M.917 16.385c.377-1.039 2.368-1.406 4.905-1.406.786 0 1.622.035 2.48.097-1.153-4.052-1.8-8.12-.378-8.942.182-.105.39-.153.626-.153 1.76 0 4.91 2.775 7.658 5.715C17.196 6.75 18.97.875 21 .875s3.805 5.876 4.794 10.819c2.75-2.94 5.897-5.715 7.658-5.715.234 0 .444.048.626.154 1.421.82.773 4.89-.379 8.941a34.823 34.823 0 0 1 2.481-.097c2.537 0 4.528.37 4.905 1.406.593 1.63-2.899 4.543-6.611 6.99H7.526c-3.71-2.445-7.203-5.36-6.609-6.988ZM6 25.25c-1.035 0-1.875.84-1.875 1.875v5.625c0 1.035.84 1.875 1.875 1.875L7.64 47.75h26.72L36 34.625c1.035 0 1.875-.84 1.875-1.875v-5.625c0-1.035-.84-1.875-1.875-1.875H6Zm28.125 24.375H7.875C6.84 49.625 6 50.465 6 51.5a5.625 5.625 0 0 0 5.625 5.625h18.75A5.625 5.625 0 0 0 36 51.5c0-1.035-.84-1.875-1.875-1.875Z" fill="#2c8659"/></svg><svg fill="none" viewBox="0 0 60 60" id="icons--instagram" xmlns="http://www.w3.org/2000/svg"><g clip-path="url(#ia)"><path d="M48.398 0H11.602C5.203 0 0 5.203 0 11.602v36.82c0 6.398 5.203 11.601 11.602 11.601h36.796C54.797 60.023 60 54.82 60 48.422V11.578C59.977 5.203 54.773 0 48.398 0Zm3.329 6.914h1.336v10.172l-10.149.023-.023-10.172 8.836-.023ZM21.422 23.836c1.922-2.648 5.039-4.406 8.555-4.406 3.515 0 6.632 1.734 8.554 4.406A10.411 10.411 0 0 1 40.523 30c0 5.813-4.734 10.57-10.57 10.57S19.43 35.812 19.43 30c0-2.297.75-4.43 1.992-6.164ZM54.14 48.398a5.751 5.751 0 0 1-5.743 5.743H11.602a5.751 5.751 0 0 1-5.743-5.743V23.836h8.954A16.331 16.331 0 0 0 13.592 30c0 9.047 7.36 16.406 16.407 16.406S46.406 39.046 46.406 30c0-2.18-.445-4.266-1.218-6.164h8.953v24.562Z" fill="#fff"/></g><defs><clipPath id="ia"><path fill="#fff" d="M0 0h60v60H0z"/></clipPath></defs></svg><svg data-name="Layer 1" viewBox="0 0 24 24" id="icons--leaf-bush" xmlns="http://www.w3.org/2000/svg"><path d="M16 24a5.017 5.017 0 0 1-2.336-.578 6.271 6.271 0 0 1-5.536-.152.586.586 0 0 0-.571.027 5.028 5.028 0 0 1-7.423-5.468 4.947 4.947 0 0 1 3.677-3.69 5.07 5.07 0 0 1 2.375 0 .276.276 0 0 0 .282-.074 6.034 6.034 0 0 1 8.8-.288c.065.067.217.22.734.22a4.984 4.984 0 0 1 3.9 1.874.4.4 0 0 0 .193.149 3.62 3.62 0 0 1 1.437.128 3.445 3.445 0 0 1 2.349 2.435 3.5 3.5 0 0 1-4.343 4.279c-.275-.077-.331-.03-.356-.01A4.929 4.929 0 0 1 16 24ZM3.356 12.191a7.109 7.109 0 0 1 2.318-.16 8.044 8.044 0 0 1 10.626-.024 6.97 6.97 0 0 1 4.616 2.009 5.689 5.689 0 0 1 1.181.216 5.382 5.382 0 0 1 1.513.732 4.556 4.556 0 0 0 .232-.714 5.383 5.383 0 0 0 .069-2.2 5.048 5.048 0 0 0-6.3-3.862 6.013 6.013 0 0 0-9.842.895 3.864 3.864 0 0 0-1.828.07 4.05 4.05 0 0 0-2.707 2.511 2.551 2.551 0 0 0-.087.6c.069-.026.136-.056.209-.073ZM1.45 10.749A6.048 6.048 0 0 1 5.4 7.223 5.934 5.934 0 0 1 6.772 7a8.014 8.014 0 0 1 11.535-.97 7.046 7.046 0 0 1 4.663 1.215 2.955 2.955 0 0 0-.362-1.728 3.042 3.042 0 0 0-1.974-1.45.925.925 0 0 1-.561-.289 4.572 4.572 0 0 0-5.131-1.5 5.51 5.51 0 0 0-9.35.767c-.026.053-.062.079-.052.083a4.346 4.346 0 0 0-2.474.113A4.524 4.524 0 0 0 .043 6.87a4.972 4.972 0 0 0 .391 2.56 3.208 3.208 0 0 0 1.016 1.319Z" fill="#2c8659ff" data-original-color="#000000ff"/></svg><svg fill="none" viewBox="-5 0 60 60" id="icons--leaf-tree" xmlns="http://www.w3.org/2000/svg"><path d="M39.28 19.587C39.743 18.141 40 16.6 40 15c0-8.284-6.715-15-15-15S10 6.716 10 15c0 1.6.256 3.14.72 4.587C4.849 21.621.626 27.186.626 33.75c0 8.284 6.715 15 15 15a14.9 14.9 0 0 0 8.7-2.803l-7.51-7.51h-4.003a.937.937 0 1 1 0-1.874h3.75v-3.75a.937.937 0 1 1 1.875 0v4.594l5.625 5.622V31.327l-3.468-3.468c-.367-.367-.327-.919.041-1.287.367-.366.876-.45 1.241-.084L25 29.612l3.084-3.084a.954.954 0 0 1 1.34-.015.938.938 0 0 1 0 1.327l-3.486 3.486V43.03l5.625-5.626v-4.592a.937.937 0 1 1 1.875 0v3.75h3.75a.937.937 0 1 1 0 1.876h-4.004l-7.509 7.509a14.903 14.903 0 0 0 8.7 2.803c8.285 0 15-6.716 15-15 0-6.564-4.223-12.13-10.096-14.163Z" fill="#2c8659"/><path d="M21.25 49.65v9.413c0 .518.42.937.938.937h5.625c.518 0 .937-.42.937-.938v-9.411A16.813 16.813 0 0 1 25 47.78a16.813 16.813 0 0 1-3.75 1.87Z" fill="#2c8659"/></svg><svg fill="none" viewBox="0 -9 60 60" id="icons--mastercard" xmlns="http://www.w3.org/2000/svg"><g clip-path="url(#la)"><path d="M55.862.828H4.138c-2 0-3.62 1.62-3.62 3.62v33.104c0 2 1.62 3.62 3.62 3.62h51.724c2 0 3.62-1.62 3.62-3.62V4.448c0-2-1.62-3.62-3.62-3.62Z" fill="#fff" stroke="#F3F3F3" stroke-width="1.034"/><path fill-rule="evenodd" clip-rule="evenodd" d="M21.981 32.266v3.056h-.67v-.371c-.212.275-.534.448-.972.448-.863 0-1.54-.671-1.54-1.605 0-.933.677-1.605 1.54-1.605.438 0 .76.173.973.448v-.37h.67Zm-1.559.55c-.58 0-.934.44-.934.978 0 .537.355.978.934.978.554 0 .928-.422.928-.978s-.374-.978-.928-.978Zm24.188.978c0-.537.354-.978.934-.978.555 0 .928.422.928.978s-.373.978-.928.978c-.58 0-.934-.441-.934-.978Zm2.494-2.755V35.322h-.67v-.371c-.213.275-.535.448-.973.448-.864 0-1.54-.671-1.54-1.605 0-.933.676-1.605 1.54-1.605.438 0 .76.173.972.448V31.04h.67Zm-16.81 1.745c.43 0 .708.269.779.741h-1.598c.071-.44.341-.74.818-.74Zm-1.521 1.01c0-.953.63-1.605 1.534-1.605.863 0 1.455.652 1.462 1.605 0 .09-.007.173-.013.255h-2.287c.096.55.49.749.92.749.31 0 .639-.116.897-.32l.328.492c-.374.314-.799.429-1.262.429-.922 0-1.58-.633-1.58-1.605Zm9.62 0c0-.537.354-.978.934-.978.553 0 .927.422.927.978s-.374.978-.927.978c-.58 0-.935-.441-.935-.978Zm2.492-1.528v3.056h-.67v-.371c-.212.275-.534.448-.972.448-.864 0-1.54-.671-1.54-1.605 0-.933.676-1.605 1.54-1.605.438 0 .76.173.973.448v-.37h.67Zm-6.275 1.528c0 .927.65 1.605 1.643 1.605.464 0 .773-.103 1.108-.365l-.322-.537a1.36 1.36 0 0 1-.805.275c-.535-.006-.928-.39-.928-.978s.393-.972.928-.978c.29 0 .554.095.805.275l.322-.537c-.335-.262-.644-.365-1.108-.365-.992 0-1.643.678-1.643 1.605Zm7.822-1.157c.174-.268.425-.448.812-.448.136 0 .329.026.477.084l-.206.626a1.092 1.092 0 0 0-.42-.077c-.438 0-.657.281-.657.787v1.713h-.67v-3.056h.664v.371Zm-17.139-.128c-.322-.21-.766-.32-1.256-.32-.78 0-1.282.371-1.282.979 0 .498.374.805 1.063.901l.316.045c.367.051.54.147.54.32 0 .236-.244.37-.701.37-.464 0-.799-.147-1.025-.32l-.315.518c.367.268.83.397 1.333.397.89 0 1.405-.416 1.405-.998 0-.537-.406-.818-1.076-.914l-.316-.045c-.29-.038-.522-.095-.522-.3 0-.224.22-.358.586-.358.393 0 .774.147.96.262l.29-.537Zm7.83.128a.908.908 0 0 1 .81-.448c.136 0 .33.026.477.084l-.206.626a1.09 1.09 0 0 0-.419-.077c-.438 0-.657.281-.657.787v1.713h-.67v-3.056h.664v.371Zm-4.904-.37h-1.095v-.928h-.677v.927h-.625v.607h.625v1.394c0 .71.277 1.132 1.07 1.132.29 0 .624-.09.837-.237l-.193-.57c-.2.116-.42.174-.593.174-.335 0-.444-.205-.444-.512v-1.38h1.095v-.608Zm-10.013 1.137v1.918h-.677v-1.7c0-.519-.219-.806-.676-.806-.445 0-.754.281-.754.812v1.694h-.677v-1.7c0-.519-.224-.806-.67-.806-.457 0-.754.281-.754.812v1.694h-.676v-3.056h.67v.377c.252-.358.574-.454.902-.454.471 0 .806.205 1.018.544.284-.429.69-.55 1.083-.544.747.007 1.211.493 1.211 1.215Z" fill="#231F20"/><path d="M35.22 27.074H25.073V8.978H35.22v18.096Z" fill="#FF5F00"/><path d="M25.716 18.026c0-3.67 1.732-6.94 4.43-9.048a11.606 11.606 0 0 0-7.169-2.46c-6.405 0-11.598 5.152-11.598 11.508 0 6.357 5.193 11.51 11.598 11.51 2.706 0 5.196-.92 7.168-2.462-2.697-2.107-4.43-5.377-4.43-9.048Z" fill="#EB001B"/><path d="M48.912 18.026c0 6.357-5.192 11.51-11.598 11.51a11.61 11.61 0 0 1-7.169-2.462c2.699-2.107 4.431-5.377 4.431-9.048 0-3.67-1.732-6.94-4.43-9.048a11.61 11.61 0 0 1 7.168-2.46c6.406 0 11.598 5.152 11.598 11.508Z" fill="#F79E1B"/></g><defs><clipPath id="la"><path fill="#fff" d="M0 0h60v42H0z"/></clipPath></defs></svg><svg fill="none" viewBox="0 -10 60 60" id="icons--mir" xmlns="http://www.w3.org/2000/svg"><g clip-path="url(#ma)"><path d="M3.077.77h53.846C58.623.77 60 2.145 60 3.845v32.308c0 1.7-1.377 3.077-3.077 3.077H3.077A3.076 3.076 0 0 1 0 36.154V3.846C0 2.146 1.377.77 3.077.77Z" fill="#fff"/><path d="M41.854 19.269v8.308h4.615v-4.923H51.7a5.12 5.12 0 0 0 4.777-3.385H41.854Z" fill="#37A72E"/><path d="M41.238 12.423c.27 3.392 3.485 6.077 7.408 6.077h8.023a5.115 5.115 0 0 0-4.985-6.077H41.238Z" fill="url(#mb)"/><path d="M34.408 18.415a.276.276 0 0 1 .246-.146.28.28 0 0 1 .277.27V27.5h4.615V12.423h-4.615c-.585.023-1.246.446-1.493.977l-3.669 7.877a.468.468 0 0 1-.038.092.309.309 0 0 1-.562-.177v-8.769h-4.615V27.5h4.615c.577-.03 1.223-.454 1.47-.977l3.769-8.084c-.008-.008 0-.016 0-.024ZM17.177 18.677l-2.7 8.823h-3.323L8.46 18.67a.3.3 0 0 0-.3-.247.3.3 0 0 0-.3.3v8.77H3.246V12.414h5.139c.846 0 1.738.662 1.984 1.47l2.246 7.346c.116.369.293.361.408 0l2.246-7.347c.246-.815 1.139-1.469 1.985-1.469h5.138v15.077h-4.615v-8.777a.3.3 0 0 0-.3-.3.313.313 0 0 0-.3.262Z" fill="#37A72E"/></g><defs><linearGradient id="mb" x1="41.24" y1="15.462" x2="56.76" y2="15.462" gradientUnits="userSpaceOnUse"><stop stop-color="#00A0E5"/><stop offset="1" stop-color="#0077C3"/></linearGradient><clipPath id="ma"><path fill="#fff" d="M0 0h60v40H0z"/></clipPath></defs></svg><svg fill="none" viewBox="0 0 60 60" id="icons--palm-tree" xmlns="http://www.w3.org/2000/svg"><path d="M57.85 14.565C56.05 8.198 50.772 5.49 44.724 6.52c-5.57.948-8.48 7.891-9.835 12.102.403-5.577-.627-13.333-7.28-16.954C17.44-3.867 11.006 6.042 10.363 7.329c-.644 1.287-.645 1.534 1.158 1.416.537-.035 5.216-1.352 9.807-.522l2.16-1.993 1.002 2.809c3.805 1.333 6.857 4.749 7.407 9.871-3.087-3.794-7.847-6.237-13.208-6.237-9.32 0-16.877 7.35-16.877 16.417 0 .73.016.206.016.206a.877.877 0 0 0 1.502.544s.188-.292 1.032-1.064a28.453 28.453 0 0 1 4.878-3.584l1.604-2.993 2.163 1.15a28.286 28.286 0 0 1 10.497-2.009c2.446 0 4.82.311 7.086.893-5.223-.346-13.095 2.377-16.211 9.024-3.86 8.236-.062 14.773.487 15.285.45.419.996.092 1.144-.639.322-1.597 1.21-4.583 2.838-7.932l-.658-2.657 1.811.464c2.27-4.002 5.592-8.203 10.292-11.033-3.632 8.003-6.622 19.698-2.066 35.255h11.19s-11.36-11.003-5.456-33.566a37.292 37.292 0 0 1 4.278 6.994l1.722.218-.769 2.06c.943 2.524 1.622 5.343 1.716 8.36.024.77.489 1.34.726.836 3.636-7.748 2.492-15.677-2.604-20.304 3.214 1.06 5.84 3.643 7.886 6.6l2.44.523-.455 2.75c1.712 3.256 2.763 6.48 3.138 8.327.148.728.534 1.203 1 .374 2.773-4.936 3.131-14.409-1.882-19.595-3.887-4.02-10.744-4.284-14.968-3.17 2.773-4.662 10.192-5.009 10.192-5.009s1.173-2.702 1.43-3.088c.258-.386 1.674 2.632 1.674 2.632l7.47 3.052s.959.655 1.146-.459c.112-.673.18-1.71-.252-2.97Z" fill="#2c8659"/></svg><svg fill="none" viewBox="-10 0 50 50" id="icons--phone" xmlns="http://www.w3.org/2000/svg"><path fill-rule="evenodd" clip-rule="evenodd" d="M21.988 0H8.011C5.225 0 4.215.29 3.197.835A5.68 5.68 0 0 0 .835 3.197C.29 4.215 0 5.226 0 8.012v33.975c0 2.785.29 3.798.835 4.816a5.694 5.694 0 0 0 2.362 2.362c1.018.545 2.028.835 4.815.835h13.976c2.785 0 3.797-.29 4.814-.835a5.694 5.694 0 0 0 2.363-2.362c.545-1.018.835-2.028.835-4.816V8.014c0-2.788-.29-3.798-.835-4.816A5.68 5.68 0 0 0 26.802.835C25.785.29 24.775 0 21.988 0ZM5 39.987V10.012h20v29.975H5Z" fill="#fff"/></svg><svg data-name="Layer 1" viewBox="0 0 24 24" id="icons--rose" xmlns="http://www.w3.org/2000/svg"><path d="m23.996 13.957-.127 1.124c-.794 7.021-7.366 8.876-10.731 8.876h-2.28c-3.364 0-9.937-1.855-10.731-8.876L0 13.957h1.025c6.004 0 8.8 4.077 9.973 6.672v-5.72C8.166 14.43 6 11.966 6 9c0-2.18-.468-4.099-.743-5.039.228.006 1.839.134 3.864.964 2.135.875 4.678 4.002 5.19 8.103.002.013.092.596.197 1.415a6.024 6.024 0 0 1-1.511.463v5.723c1.172-2.596 3.969-6.672 9.973-6.672h1.025ZM9.879 3.075c.697.286 1.417.742 2.113 1.34.687-.587 1.41-1.045 2.128-1.34a18.317 18.317 0 0 1 2.434-.818C16.678.678 17 0 17 0s-2.5 0-5 1.5C9.5 0 7 0 7 0s.322.678.446 2.257c.619.157 1.427.405 2.433.817Zm3.509 2.784c1.419 1.747 2.559 4.127 2.904 6.892.003.019.024.155.055.372A5.975 5.975 0 0 0 18 8.999c0-2.234.491-4.194.763-5.107-.202.028-1.859.202-3.884 1.032-.493.202-.998.524-1.491.934Z" fill="#2c8659ff" data-original-color="#000000ff"/></svg><svg fill="none" viewBox="0 0 51 51" id="icons--search" xmlns="http://www.w3.org/2000/svg"><path d="M23.412 10.061c6.903 0 12.5 5.597 12.5 12.5M37.559 36.7 48.412 47.56m-5-25c0 11.046-8.955 20-20 20-11.046 0-20-8.954-20-20 0-11.045 8.954-20 20-20 11.045 0 20 8.955 20 20Z" stroke="#fff" stroke-width="5" stroke-linecap="round" stroke-linejoin="round"/></svg><svg fill="none" viewBox="0 -4.5 51 51" id="icons--telegram" xmlns="http://www.w3.org/2000/svg"><path d="M46.663.293 2.337 17.385C-.688 18.6-.67 20.287 1.782 21.04l11.38 3.55 26.33-16.612c1.245-.758 2.383-.35 1.448.48L19.608 27.71h-.006l.006.002-.785 11.73c1.15 0 1.657-.527 2.302-1.15l5.527-5.375L38.15 41.41c2.12 1.168 3.642.568 4.17-1.962l7.547-35.57C50.64.78 48.685-.622 46.663.293Z" fill="#fff"/></svg><svg fill="none" viewBox="-3.5 0 53 53" id="icons--user" xmlns="http://www.w3.org/2000/svg"><path d="M.5 49c0 1.04.36 1.94 1.08 2.7.72.76 1.62 1.12 2.7 1.08h37.5c1 0 1.88-.36 2.64-1.08.76-.72 1.12-1.62 1.08-2.7 0-1.8-.42-3.62-1.26-5.46-.84-1.84-1.94-3.48-3.3-4.92-1.36-1.44-2.92-2.78-4.68-4.02-1.76-1.24-3.56-2.18-5.4-2.82 2.2-1.36 3.94-3.18 5.22-5.46C37.36 24.04 38 21.6 38 19v-3.72c0-4.16-1.46-7.7-4.38-10.62C30.7 1.74 27.16.28 23 .28c-4.16 0-7.7 1.46-10.62 4.38C9.46 7.58 8 11.12 8 15.28V19c0 2.64.64 5.08 1.92 7.32 1.28 2.24 3.02 4.06 5.22 5.46a23.22 23.22 0 0 0-5.4 2.82 30.22 30.22 0 0 0-4.68 4.02c-1.4 1.48-2.5 3.12-3.3 4.92C.96 45.34.54 47.16.5 49Z" fill="#fff"/></svg><svg fill="none" viewBox="0 -9 60 60" id="icons--visa" xmlns="http://www.w3.org/2000/svg"><g clip-path="url(#ta)"><path d="M54.857.857H5.143A4.714 4.714 0 0 0 .429 5.571V36.43a4.714 4.714 0 0 0 4.714 4.714h49.714a4.714 4.714 0 0 0 4.715-4.714V5.57A4.714 4.714 0 0 0 54.857.857Z" fill="#fff" stroke="#D9D9D9" stroke-width=".857"/><path fill-rule="evenodd" clip-rule="evenodd" d="M18.215 28.3H14.58L11.854 17.9c-.13-.478-.404-.901-.808-1.1-1.008-.501-2.12-.9-3.332-1.1V15.3h5.856c.808 0 1.414.601 1.515 1.3l1.414 7.5 3.633-8.8h3.534l-5.451 13Zm7.471 0h-3.432l2.826-13h3.433l-2.827 13Zm7.268-9.399c.101-.7.707-1.1 1.415-1.1 1.11-.1 2.321.1 3.331.6l.607-2.8a8.69 8.69 0 0 0-3.13-.601c-3.332 0-5.756 1.8-5.756 4.3 0 1.901 1.717 2.9 2.93 3.5 1.31.6 1.816 1 1.715 1.6 0 .9-1.01 1.3-2.019 1.3-1.212 0-2.424-.3-3.534-.8l-.606 2.8c1.212.5 2.524.7 3.736.7 3.736.1 6.057-1.7 6.057-4.4 0-3.4-4.746-3.6-4.746-5.099Zm16.76 9.399-2.725-13H44.06c-.606 0-1.212.4-1.414 1l-5.048 12h3.534l.706-1.9h4.342l.404 1.9h3.13Zm-5.148-9.5 1.008 4.9h-2.826l1.818-4.9Z" fill="#172B85"/></g><defs><clipPath id="ta"><path fill="#fff" d="M0 0h60v42H0z"/></clipPath></defs></svg><svg fill="none" viewBox="0 -9 60 60" id="icons--youtube" xmlns="http://www.w3.org/2000/svg"><path fill-rule="evenodd" clip-rule="evenodd" d="M23.965 28.758V11.923c5.977 2.812 10.606 5.529 16.08 8.458-4.515 2.504-10.103 5.314-16.08 8.377ZM57.273 3.55c-1.03-1.358-2.788-2.416-4.659-2.766C47.116-.26 12.813-.263 7.317.784c-1.5.281-2.835.961-3.983 2.017C-1.501 7.29.014 31.355 1.179 35.254c.49 1.687 1.124 2.904 1.922 3.703 1.028 1.056 2.435 1.783 4.052 2.109 4.527.936 27.851 1.46 45.366.14a7.858 7.858 0 0 0 4.168-2.132c4.47-4.47 4.166-29.888.586-35.524Z" fill="#fff"/></svg><svg fill="none" viewBox="0 -0.5 60 60" id="logo" xmlns="http://www.w3.org/2000/svg"><path d="M30.17 36.794h.097a2.03 2.03 0 0 0 1.789-1.108 2.032 2.032 0 0 0-.143-2.102l-5.7-8.058a2 2 0 0 0 .623-.722 2.017 2.017 0 0 0-.144-2.091l-4.768-6.738a2.016 2.016 0 0 0-3.292-.002l-4.768 6.739a2.015 2.015 0 0 0 .482 2.809l-5.698 8.054a2.05 2.05 0 0 0-.144 2.11 2.028 2.028 0 0 0 1.79 1.108h.094L3.03 47.173a2.022 2.022 0 0 0 1.646 3.192h12.67v4.741c0 1.112.909 2 2.022 2h1.39c1.114 0 2.033-.888 2.033-2v-4.742h13.095c.753 0 1.444-.437 1.79-1.104a2 2 0 0 0-.144-2.081l-7.361-10.385ZM37.509 18.988h.768l-5.134 7.25a.947.947 0 0 0-.066.97c.16.308.476.51.823.51h8.858v3.41c0 .513.405.913.918.913H45.3a.903.903 0 0 0 .914-.913v-3.41h9.14a.936.936 0 0 0 .822-.512.924.924 0 0 0-.067-.963l-5.133-7.255h.77a.925.925 0 0 0 .823-.507.93.93 0 0 0-.066-.964l-3.916-5.535a.93.93 0 0 0 .632-.479.927.927 0 0 0-.07-.963l-3.766-5.327a.933.933 0 0 0-.757-.392.93.93 0 0 0-.757.392l-3.768 5.326a.93.93 0 0 0 .562 1.442l-3.915 5.533a.937.937 0 0 0-.067.967c.16.31.48.507.827.507ZM59.829 53.563l-4.105-5.791h.342a.937.937 0 0 0 .823-.514.931.931 0 0 0-.067-.966l-3.145-4.448a.922.922 0 0 0 .352-1.368l-2.84-4.018a.924.924 0 0 0-1.514 0l-2.843 4.016a.928.928 0 0 0 .352 1.367l-3.144 4.443a.952.952 0 0 0-.067.974.94.94 0 0 0 .824.514h.342l-4.106 5.79a.934.934 0 0 0 .757 1.471h7.104v2.687c0 .513.388.944.898.944h1.045c.514 0 .91-.431.91-.944v-2.687h7.325a.933.933 0 0 0 .757-1.47ZM6.107 17.52c0 .464.41.864.875.864h.582c.463 0 .877-.4.877-.864V15.53h5.444c.314 0 .604-.18.748-.46a.87.87 0 0 0-.061-.887l-3.075-4.358h.04a.829.829 0 0 0 .687-1.311L9.842 5.15a.839.839 0 0 0 .203-1.17L8.048 1.165a.838.838 0 0 0-1.373-.001L4.683 3.98a.844.844 0 0 0 .203 1.173L2.504 8.52a.823.823 0 0 0 .687 1.306h.039L.154 14.184a.857.857 0 0 0 .687 1.347h5.266v1.989ZM24.266 11.986h4.489v1.7c0 .261.21.461.47.461h.821c.261 0 .436-.2.436-.462v-1.7h4.664a.49.49 0 0 0 .42-.274.516.516 0 0 0-.033-.516l-2.605-3.704h.385a.46.46 0 0 0 .388-.725l-1.984-2.802A.472.472 0 0 0 32 3.232L30.093.534a.474.474 0 0 0-.774 0l-1.907 2.698a.474.474 0 0 0 .283.735l-1.983 2.806a.446.446 0 0 0-.034.476c.08.157.243.242.42.242h.384l-2.603 3.694a.52.52 0 0 0-.034.518c.08.158.243.283.42.283Z" fill="#fff"/></svg><svg fill="none" viewBox="0 0 60 60" id="prioritise--prioritise-img-1" xmlns="http://www.w3.org/2000/svg"><path d="M30 53.95c13.227 0 23.95-10.723 23.95-23.95C53.95 16.773 43.227 6.05 30 6.05 16.773 6.05 6.05 16.773 6.05 30c0 13.227 10.723 23.95 23.95 23.95Z" stroke="#2c8659" stroke-width="4.8" stroke-miterlimit="10"/><path d="M30 44.375c7.94 0 14.375-6.436 14.375-14.375 0-7.94-6.436-14.375-14.375-14.375-7.94 0-14.375 6.436-14.375 14.375 0 7.94 6.436 14.375 14.375 14.375Z" stroke="#2c8659" stroke-width="4.8" stroke-miterlimit="10"/><path d="M30 34.8a4.8 4.8 0 1 0 0-9.6 4.8 4.8 0 0 0 0 9.6Z" stroke="#2c8659" stroke-width="4.8" stroke-miterlimit="10"/><path d="M22.8 41.975A7.174 7.174 0 0 1 30 34.8a7.175 7.175 0 0 1 7.2 7.175M30 1.25v9.575M30 49.175v9.575M58.75 30h-9.575M10.825 30H1.25" stroke="#2c8659" stroke-width="4.8" stroke-miterlimit="10"/></svg><svg fill="none" viewBox="-6 0 60 60" id="prioritise--prioritise-img-2" xmlns="http://www.w3.org/2000/svg"><path d="M8.493 33.831a1.939 1.939 0 0 0 1.879-.36c.762-.646 1.122-1.741.566-5.201-.493-3.069-1.256-4.675-2.552-5.372a2.8 2.8 0 0 0-.895-.304c.01-5.718 1.97-11.003 5.39-14.517C15.8 5.073 19.645 3.487 24 3.487s8.199 1.586 11.12 4.59c3.42 3.514 5.38 8.798 5.389 14.517a2.8 2.8 0 0 0-.895.304c-1.295.697-2.058 2.303-2.551 5.372-.21 1.31-.297 2.323-.264 3.092-1.008.54-2.81 1.208-5.809 1.468a2.6 2.6 0 0 0-2.226-1.271h-1.73a2.611 2.611 0 0 0-2.608 2.608 2.611 2.611 0 0 0 2.608 2.608h1.73a2.6 2.6 0 0 0 2.36-1.5c2.727-.226 4.978-.787 6.693-1.668a1.901 1.901 0 0 0 1.69.224c1.38-.46 4.29-3.604 4.477-10.393.193-6.952-2.127-13.436-6.365-17.792C34.027 1.952 29.318 0 24 0c-5.317 0-10.027 1.952-13.62 5.646-4.236 4.356-6.556 10.84-6.364 17.792.188 6.79 3.097 9.934 4.477 10.393Z" fill="#2c8659"/><path d="M47.054 53.558a7.556 7.556 0 0 0-4.279-5.507l-9.38-3.833a4.238 4.238 0 0 1-2.462-3.84v-.757l-.247.086a5.855 5.855 0 0 1-1.922.328h-1.73a5.875 5.875 0 0 1-5.868-5.868 5.875 5.875 0 0 1 5.868-5.868h1.73c1.207 0 2.367.367 3.355 1.061l.062.044.075-.013c2.065-.34 3.017-.88 3.377-1.143l.617-.902c.604-1.94.91-3.763.91-5.416 0-8.754-5.534-15.107-13.16-15.107S10.84 13.176 10.84 21.93c0 7.243 5.883 15.177 5.915 15.205.207.601.312 1.228.312 1.861v1.381a4.236 4.236 0 0 1-2.454 3.837l-9.395 3.84a7.552 7.552 0 0 0-4.274 5.523L.446 60h47.109l-.5-6.442Z" fill="#2c8659"/></svg><svg fill="none" viewBox="0 0 60 60" id="prioritise--prioritise-img-3" xmlns="http://www.w3.org/2000/svg"><path d="M59.666 36.255a5.052 5.052 0 0 0-5.052-5.052h-.241a5.052 5.052 0 0 0-2.661-9.347h-18.82c3.502-6.484 4.755-11.262 5.944-15.33A5.072 5.072 0 0 0 36.178.54c-2.521-1.219-5.273-.352-6.772 2.356-3.373 6.094-8.657 13.686-16.908 22.145-1.45 1.487-2.453 3.296-2.907 5.268H.334v24.638h10.931C13.322 57.993 16.805 60 20.75 60H46.53a5.052 5.052 0 0 0 2.661-9.346h1.634a5.052 5.052 0 0 0 2.66-9.347h1.129a5.051 5.051 0 0 0 5.052-5.051Z" fill="#2c8659"/></svg><svg fill="none" viewBox="0 0 60 60" id="prioritise--prioritise-img-4" xmlns="http://www.w3.org/2000/svg"><g clip-path="url(#ya)"><path d="M13.2 13.2A13.16 13.16 0 0 0 0 26.4c0 2.76.84 5.4 2.4 7.56V50.4C2.4 52.322 4.078 54 6 54h2.512c.577 3.394 3.54 6 7.088 6s6.51-2.606 7.088-6h11.03a3.359 3.359 0 0 0 3.365-3.361V21.483C37.2 19.56 35.639 18 33.839 18H23.4c-2.4-2.878-6.122-4.8-10.2-4.8Zm0 2.4c6 0 10.8 4.8 10.8 10.8 0 6-4.8 10.8-10.8 10.8-6 0-10.8-4.8-10.8-10.8 0-6 4.8-10.8 10.8-10.8Zm-.019 1.181A1.205 1.205 0 0 0 12 18v6.9a1.945 1.945 0 0 0-.722 1.5c.005.07.01.14.019.206l-2.545 2.545c-.315.3-.441.75-.329 1.168.108.422.436.75.858.858a1.19 1.19 0 0 0 1.167-.329l2.541-2.54a1.916 1.916 0 0 0 2.128-1.908c0-.581-.262-1.134-.717-1.5V18a1.203 1.203 0 0 0-1.219-1.219ZM40.8 24a2.405 2.405 0 0 0-2.4 2.4v25.2c0 1.008.633 1.875 1.519 2.227.506 3.478 3.51 6.173 7.12 6.173 3.548 0 6.516-2.606 7.092-6H56.4c2.04 0 3.6-1.561 3.6-3.6V38.883c0-2.4-1.678-4.922-1.917-5.166L55.317 30l-2.278-3c-1.2-1.322-3-3-5.039-3h-7.2Zm4.8 6h6.717l3.844 5.039c.36.6 1.439 2.4 1.439 3.722v.839h-12c-1.2 0-2.4-1.2-2.4-2.4v-4.8c0-1.322 1.2-2.4 2.4-2.4Zm-30 18c2.64 0 4.8 2.16 4.8 4.8 0 2.639-2.16 4.8-4.8 4.8-2.64 0-4.8-2.161-4.8-4.8 0-2.64 2.16-4.8 4.8-4.8Zm31.44 0c2.638 0 4.8 2.16 4.8 4.8 0 2.639-2.162 4.8-4.8 4.8-2.64 0-4.8-2.161-4.8-4.8 0-2.64 2.16-4.8 4.8-4.8Z" fill="#2c8659"/></g><defs><clipPath id="ya"><path fill="#fff" d="M0 0h60v60H0z"/></clipPath></defs></svg></svg>